<svg xmlns="http://www.w3.org/2000/svg" viewBox="0 0 641.73 537"><defs><style>.cls-1{fill:#f8af00;}.cls-2{fill:#a7a9ac;}.cls-11,.cls-2,.cls-4,.cls-5,.cls-7,.cls-8{fill-rule:evenodd;}.cls-3{fill:#939598;}.cls-4{fill:#fcd77e;}.cls-5{fill:#fcbf29;}.cls-6{fill:#cb9920;}.cls-7{fill:#fcca51;}.cls-10,.cls-8{fill:#231f20;}.cls-9{fill:#58595b;}.cls-11,.cls-12{fill:#fff;}</style></defs><g id="Calque_2" data-name="Calque 2"><g id="Calque_1-2" data-name="Calque 1"><rect class="cls-1" width="641.73" height="537"/><path class="cls-2" d="M401.85,320.24c-.27-1.4-2.19-2.49-4.52-2.49s-4.24,1.09-4.51,2.49h-5.11a2.08,2.08,0,0,0-2.07,2.07v.77h-.77a3.46,3.46,0,0,0-3.45,3.45v20.4l-2.12,1.54v5.13h36.07V350l-2.12-1.53V326.53a3.46,3.46,0,0,0-3.45-3.45H409v-.77a2.07,2.07,0,0,0-2.06-2.07Z"/><path class="cls-3" d="M412.49,348.47V326.53a2.7,2.7,0,0,0-2.69-2.69H384.87a2.7,2.7,0,0,0-2.69,2.69v20.79l-.32.22-1.81,1.31v4h34.57v-2.45l-1.81-1.31-.32-.23v-.38Zm-4.22-26.15h0a1.32,1.32,0,0,0-.39-.93h0A1.28,1.28,0,0,0,407,321H387.71a1.29,1.29,0,0,0-.92.39,1.28,1.28,0,0,0-.39.92h21.87Zm-23.38,0h0a2.83,2.83,0,0,1,2.82-2.83h4.65a3.79,3.79,0,0,1,1.36-1.37,7.35,7.35,0,0,1,7.23,0,3.79,3.79,0,0,1,1.36,1.37H407a2.83,2.83,0,0,1,2,.83h0a2.8,2.8,0,0,1,.82,2h0a4.23,4.23,0,0,1,4.21,4.21v21.55l1.81,1.31.31.23v4.74H378.54v-6.28l.31-.23,1.81-1.3v-20a4.23,4.23,0,0,1,4.21-4.21Zm15.4-2.84-.14-.09a5.94,5.94,0,0,0-5.63,0l-.14.09Z"/><path class="cls-2" d="M381.11,335.91l32.63,1.71a1.71,1.71,0,0,1,1.61,1.79h0a1.7,1.7,0,0,1-1.79,1.61l-32.63-1.71a1.71,1.71,0,0,1-1.61-1.79h0a1.71,1.71,0,0,1,1.79-1.61Zm0,11.6,32.63,1.71a1.71,1.71,0,0,1,1.61,1.79h0a1.7,1.7,0,0,1-1.79,1.61l-32.63-1.71a1.71,1.71,0,0,1-1.61-1.79h0a1.71,1.71,0,0,1,1.79-1.61Zm0-5.8,32.63,1.71a1.71,1.71,0,0,1,1.61,1.79h0a1.7,1.7,0,0,1-1.79,1.61l-32.63-1.71a1.71,1.71,0,0,1-1.61-1.79h0a1.71,1.71,0,0,1,1.79-1.61Zm0-11.61,32.63,1.71a1.71,1.71,0,0,1,1.61,1.79h0a1.7,1.7,0,0,1-1.79,1.61l-32.63-1.71a1.71,1.71,0,0,1-1.61-1.79h0A1.71,1.71,0,0,1,381.11,330.1Z"/><path class="cls-3" d="M381.15,329.35l32.63,1.71a2.44,2.44,0,0,1,1.7.81,2.46,2.46,0,0,1-2,4.1l-32.59-1.71h0a2.46,2.46,0,0,1-2.33-2.54h0v0a2.5,2.5,0,0,1,.81-1.69,2.45,2.45,0,0,1,1.78-.63Zm0,17.41,32.63,1.71a2.44,2.44,0,0,1,1.7.81,2.44,2.44,0,0,1-.19,3.47,2.46,2.46,0,0,1-1.77.63l-32.63-1.71a2.44,2.44,0,0,1-1.7-.81,2.45,2.45,0,0,1,.18-3.47,2.45,2.45,0,0,1,1.78-.63ZM413.7,350l-32.63-1.71a.94.94,0,0,0-1,.89.94.94,0,0,0,.24.69,1,1,0,0,0,.65.31l32.63,1.71a.93.93,0,0,0,.68-.25.92.92,0,0,0,.31-.65.93.93,0,0,0-.24-.68.92.92,0,0,0-.65-.31Zm-32.55-9a2.45,2.45,0,0,0-1.78.63,2.5,2.5,0,0,0-.81,1.7v0h0a2.46,2.46,0,0,0,2.33,2.54h0l32.59,1.71h0a2.42,2.42,0,0,0,1.73-.63,2.39,2.39,0,0,0,.67-1h.11l0-.72a2.49,2.49,0,0,0-.63-1.77h0a2.44,2.44,0,0,0-1.7-.81L381.15,341Zm32.55,3.22a.92.92,0,0,1,.65.31h0a1,1,0,0,1,.24.54v.18a.93.93,0,0,1-.31.61,1,1,0,0,1-.68.25h0L381,344.36h0a.89.89,0,0,1-.62-.31.92.92,0,0,1-.24-.68v0a1,1,0,0,1,.31-.63,1,1,0,0,1,.68-.24l32.63,1.71Zm-32.55-9a2.45,2.45,0,0,0-1.78.63,2.5,2.5,0,0,0-.81,1.69v0h0a2.46,2.46,0,0,0,2.33,2.54h0l32.59,1.71a2.48,2.48,0,0,0,2.59-2.33,2.49,2.49,0,0,0-.63-1.77,2.44,2.44,0,0,0-1.7-.81l-32.63-1.71Zm32.55,3.22a.92.92,0,0,1,.65.31.93.93,0,0,1,.24.68.92.92,0,0,1-.31.65,1,1,0,0,1-.68.25L381,338.56h0a.93.93,0,0,1-.62-.31.92.92,0,0,1-.24-.68v0a1,1,0,0,1,.31-.63,1,1,0,0,1,.68-.24l32.63,1.71Zm0-5.81-32.63-1.71a1,1,0,0,0-.68.24,1,1,0,0,0-.31.63v0a.92.92,0,0,0,.24.68.93.93,0,0,0,.62.31h0l32.63,1.71a1,1,0,0,0,.68-.25.92.92,0,0,0,.31-.65.93.93,0,0,0-.24-.68A.92.92,0,0,0,413.7,332.57Z"/><path class="cls-4" d="M378.45,354.36a5.77,5.77,0,0,0-3.33,5.21c0,11.27-3.73,17.39-10.14,26.07-6.66,9-10.43,15.76-10.43,27.42a42.79,42.79,0,0,0,85.57,0c0-11.66-3.77-18.39-10.43-27.42-6.41-8.68-10.14-14.8-10.14-26.07a5.77,5.77,0,0,0-3.33-5.21Z"/><path class="cls-5" d="M397.33,453.37a40.32,40.32,0,0,0,40.32-40.31c0-12.47-5-19.31-10.09-26.15-5.24-7.09-10.48-14.19-10.48-27.34a3.29,3.29,0,0,0-3.29-3.28H380.88a3.29,3.29,0,0,0-3.29,3.28c0,13.15-5.25,20.25-10.48,27.34-5.05,6.84-10.09,13.68-10.09,26.15a40.32,40.32,0,0,0,40.31,40.31Z"/><path class="cls-6" d="M396.12,354.57c-.26,15.4,0,32.08-2.53,47.33a8.84,8.84,0,0,1,3.74.57,9,9,0,0,1,3.36-.58c-2.89-15-2.25-32.12-2.16-47.32h1.64c-.09,15.28-.75,32.41,2.23,47.51l.54.14a8.68,8.68,0,0,1,4.8,3.38h0a2.65,2.65,0,0,1-.3,3.4h0a2.64,2.64,0,0,1-1.87.78c-1.67,0-3.3-1.14-4.52-6.23a7.31,7.31,0,0,0-1.81.09,5.84,5.84,0,0,1,1.57,2.58,6.13,6.13,0,0,1,.2,2.54,4.55,4.55,0,0,1-.94,2.25,3.58,3.58,0,0,1-5.47,0,4.46,4.46,0,0,1-.94-2.25,6,6,0,0,1,.2-2.54h0a5.75,5.75,0,0,1,1.57-2.58,7.44,7.44,0,0,0-2.16-.06c-1.06,5.05-2.47,6.2-4.17,6.2a2.64,2.64,0,0,1-1.87-.78h0a2.6,2.6,0,0,1-.78-1.87,2.63,2.63,0,0,1,.48-1.53h0a8.68,8.68,0,0,1,4.8-3.38l.15,0c2.65-15.34,2.34-32.12,2.6-47.61Zm-7,53.57c.9,0,1.69-.8,2.43-4.13a7,7,0,0,0-3.26,2.53h0a1.13,1.13,0,0,0-.13.27,1.06,1.06,0,0,0-.05.31,1,1,0,0,0,.3.71h0a1,1,0,0,0,.71.3Zm10.13-1.45a2,2,0,1,0-3.79,0h0a4.42,4.42,0,0,0-.16,1.86,3,3,0,0,0,.58,1.43,1.86,1.86,0,0,0,1.47.66,1.8,1.8,0,0,0,1.47-.66,2.75,2.75,0,0,0,.58-1.43,4.2,4.2,0,0,0-.15-1.85Zm7.17-.15a7,7,0,0,0-3.6-2.65c.87,3.44,1.83,4.25,2.77,4.25a1,1,0,0,0,.71-.3h0a1,1,0,0,0,.3-.71,1.06,1.06,0,0,0-.05-.31,1.13,1.13,0,0,0-.13-.27Z"/><path class="cls-7" d="M381.43,439C385,436,371.6,420,368,423S377.82,442,381.43,439Z"/><path class="cls-7" d="M365.43,419.1c3.33-.07,3-14.85-.29-14.78S362.11,419.17,365.43,419.1Z"/><path class="cls-8" d="M373.67,362.41H421V320.93c0-17.62-47.28-17.6-47.28,0Z"/><rect class="cls-9" x="379.38" y="320.93" width="1.65" height="36.54"/><rect class="cls-10" x="395.25" y="0.27" width="4.11" height="308.28"/><polygon class="cls-8" points="393.61 308.55 401.01 308.55 400.19 290.31 394.43 290.31 393.61 308.55"/><path class="cls-2" d="M490.62,320.24c-.26-1.4-2.18-2.49-4.51-2.49s-4.25,1.09-4.52,2.49h-5.11a2.07,2.07,0,0,0-2.06,2.07v.77h-.78a3.46,3.46,0,0,0-3.45,3.45v20.4l-2.12,1.54v5.13h36.08V350L502,348.47V326.53a3.46,3.46,0,0,0-3.45-3.45h-.77v-.77a2.07,2.07,0,0,0-2.07-2.07Z"/><path class="cls-3" d="M501.26,348.47V326.53a2.7,2.7,0,0,0-2.69-2.69H473.64a2.7,2.7,0,0,0-2.69,2.69v20.79l-.31.22-1.81,1.31v4h34.56v-2.45l-1.81-1.31-.32-.23v-.38ZM497,322.32h0a1.32,1.32,0,0,0-.39-.93h0a1.28,1.28,0,0,0-.92-.39H476.48a1.31,1.31,0,0,0-.92.39,1.28,1.28,0,0,0-.39.92H497Zm-23.38,0h0a2.83,2.83,0,0,1,2.82-2.83h4.65a3.79,3.79,0,0,1,1.36-1.37,7.35,7.35,0,0,1,7.23,0,3.74,3.74,0,0,1,1.37,1.37h4.64a2.83,2.83,0,0,1,2,.83h0a2.8,2.8,0,0,1,.83,2h0a4.23,4.23,0,0,1,4.21,4.21v21.55l1.81,1.31.31.23v4.74H467.31v-6.28l.32-.23,1.8-1.3v-20a4.23,4.23,0,0,1,4.21-4.21Zm15.4-2.84-.14-.09a5.94,5.94,0,0,0-5.63,0l-.14.09Z"/><path class="cls-2" d="M469.88,335.91l32.63,1.71a1.71,1.71,0,0,1,1.61,1.79h0a1.7,1.7,0,0,1-1.79,1.61l-32.63-1.71a1.71,1.71,0,0,1-1.61-1.79h0a1.71,1.71,0,0,1,1.79-1.61Zm0,11.6,32.63,1.71a1.71,1.71,0,0,1,1.61,1.79h0a1.7,1.7,0,0,1-1.79,1.61l-32.63-1.71a1.71,1.71,0,0,1-1.61-1.79h0a1.72,1.72,0,0,1,1.79-1.61Zm0-5.8,32.63,1.71a1.71,1.71,0,0,1,1.61,1.79h0a1.7,1.7,0,0,1-1.79,1.61l-32.63-1.71a1.71,1.71,0,0,1-1.61-1.79h0a1.71,1.71,0,0,1,1.79-1.61Zm0-11.61,32.63,1.71a1.71,1.71,0,0,1,1.61,1.79h0a1.7,1.7,0,0,1-1.79,1.61L469.7,333.5a1.71,1.71,0,0,1-1.61-1.79h0A1.71,1.71,0,0,1,469.88,330.1Z"/><path class="cls-3" d="M469.92,329.35l32.63,1.71a2.44,2.44,0,0,1,1.7.81,2.47,2.47,0,0,1,.63,1.77,2.46,2.46,0,0,1-2.59,2.33l-32.59-1.71h0a2.5,2.5,0,0,1-1.69-.81,2.44,2.44,0,0,1-.64-1.73h0v0a2.46,2.46,0,0,1,2.58-2.32Zm0,17.41,32.63,1.71a2.42,2.42,0,0,1,1.7.81,2.46,2.46,0,0,1-2,4.1l-32.63-1.71a2.46,2.46,0,0,1,.26-4.91ZM502.47,350l-32.63-1.71a.94.94,0,0,0-1,.89,1,1,0,0,0,.24.69,1,1,0,0,0,.65.31l32.63,1.71a.93.93,0,0,0,.68-.25.92.92,0,0,0,.31-.65.93.93,0,0,0-.24-.68.92.92,0,0,0-.65-.31Zm-32.55-9a2.46,2.46,0,0,0-2.58,2.33v0h0a2.48,2.48,0,0,0,2.33,2.54h0l32.59,1.71h0a2.45,2.45,0,0,0,2.4-1.61h.11l0-.72a2.49,2.49,0,0,0-.63-1.77h0a2.42,2.42,0,0,0-1.7-.81L469.92,341Zm32.55,3.22a.92.92,0,0,1,.65.31h0a1,1,0,0,1,.24.54v.18a.93.93,0,0,1-.31.61,1,1,0,0,1-.68.25h0l-32.59-1.7h0a.89.89,0,0,1-.63-.31,1,1,0,0,1-.24-.68v0a1,1,0,0,1,.31-.63,1,1,0,0,1,.68-.24l32.63,1.71Zm-32.55-9a2.46,2.46,0,0,0-2.58,2.32v0h0a2.46,2.46,0,0,0,.64,1.73,2.5,2.5,0,0,0,1.69.81h0l32.59,1.71a2.46,2.46,0,0,0,2-4.1,2.44,2.44,0,0,0-1.7-.81l-32.63-1.71Zm32.55,3.22a.92.92,0,0,1,.65.31.93.93,0,0,1,.24.68.92.92,0,0,1-.31.65,1,1,0,0,1-.68.25l-32.63-1.71h0a.93.93,0,0,1-.63-.31,1,1,0,0,1-.24-.68v0a1,1,0,0,1,.31-.63,1,1,0,0,1,.68-.24l32.63,1.71Zm0-5.81-32.63-1.71a1,1,0,0,0-.68.24,1,1,0,0,0-.31.63v0a1,1,0,0,0,.24.68.93.93,0,0,0,.63.31h0l32.63,1.71a1,1,0,0,0,.68-.25.92.92,0,0,0,.31-.65.93.93,0,0,0-.24-.68A.92.92,0,0,0,502.47,332.57Z"/><path class="cls-4" d="M467.22,354.36a5.77,5.77,0,0,0-3.33,5.21c0,11.27-3.72,17.39-10.13,26.07-6.66,9-10.43,15.76-10.43,27.42a42.78,42.78,0,1,0,85.56,0c0-11.66-3.77-18.39-10.43-27.42-6.41-8.68-10.14-14.8-10.14-26.07a5.75,5.75,0,0,0-3.33-5.21Z"/><path class="cls-5" d="M486.11,453.37a40.32,40.32,0,0,0,40.31-40.31c0-12.47-5-19.31-10.09-26.15-5.23-7.09-10.48-14.19-10.48-27.34a3.29,3.29,0,0,0-3.29-3.28H469.65a3.29,3.29,0,0,0-3.29,3.28c0,13.15-5.24,20.25-10.47,27.34-5.05,6.84-10.1,13.68-10.1,26.15a40.32,40.32,0,0,0,40.32,40.31Z"/><path class="cls-6" d="M484.89,354.57c-.26,15.4,0,32.08-2.53,47.33a8.91,8.91,0,0,1,3.75.57,8.93,8.93,0,0,1,3.35-.58c-2.89-15-2.25-32.12-2.16-47.32h1.64c-.09,15.28-.75,32.41,2.23,47.51l.55.14a8.65,8.65,0,0,1,4.79,3.38h0a2.67,2.67,0,0,1-.29,3.4h0a2.64,2.64,0,0,1-1.87.78c-1.67,0-3.3-1.14-4.52-6.23a7.23,7.23,0,0,0-1.8.09,5.82,5.82,0,0,1,1.56,2.58,6,6,0,0,1,.2,2.54,4.46,4.46,0,0,1-.94,2.25,3.39,3.39,0,0,1-2.73,1.27,3.42,3.42,0,0,1-2.74-1.27,4.46,4.46,0,0,1-.94-2.25,6.13,6.13,0,0,1,.2-2.54h0a5.84,5.84,0,0,1,1.57-2.58,7.44,7.44,0,0,0-2.16-.06c-1.06,5.05-2.47,6.2-4.16,6.2A2.66,2.66,0,0,1,476,409h0a2.65,2.65,0,0,1-.3-3.4h0a8.71,8.71,0,0,1,4.8-3.38l.16,0c2.64-15.34,2.33-32.12,2.6-47.61Zm-7,53.57c.89,0,1.68-.8,2.42-4.13a7,7,0,0,0-3.25,2.53h0a.87.87,0,0,0-.14.27,1.06,1.06,0,0,0-.05.31,1,1,0,0,0,.3.71h0a1,1,0,0,0,.72.3ZM488,406.69a2,2,0,1,0-3.8,0h0a4.26,4.26,0,0,0-.15,1.86,2.79,2.79,0,0,0,.58,1.43,2,2,0,0,0,2.94,0,2.93,2.93,0,0,0,.58-1.43,4.52,4.52,0,0,0-.15-1.85Zm7.16-.15a7,7,0,0,0-3.6-2.65c.88,3.44,1.83,4.25,2.77,4.25a1,1,0,0,0,.71-.3h0a1,1,0,0,0,.3-.71,1.06,1.06,0,0,0-.05-.31,1.13,1.13,0,0,0-.13-.27Z"/><path class="cls-7" d="M470.2,439c3.61-3-9.83-19.06-13.45-16S466.59,442,470.2,439Z"/><path class="cls-7" d="M454.21,419.1c3.33-.07,3-14.85-.3-14.78S450.88,419.17,454.21,419.1Z"/><path class="cls-8" d="M462.45,362.41h47.27V320.93c0-17.62-47.27-17.6-47.27,0Z"/><rect class="cls-9" x="468.15" y="320.93" width="1.65" height="36.54"/><rect class="cls-10" x="484.03" y="0.27" width="4.11" height="308.28"/><polygon class="cls-8" points="482.38 308.55 489.78 308.55 488.96 290.31 483.2 290.31 482.38 308.55"/><path class="cls-2" d="M579.4,320.24c-.27-1.4-2.19-2.49-4.52-2.49s-4.25,1.09-4.52,2.49h-5.11a2.07,2.07,0,0,0-2.06,2.07v.77h-.78a3.45,3.45,0,0,0-3.44,3.45v20.4l-2.13,1.54v5.13h36.08V350l-2.13-1.53V326.53a3.46,3.46,0,0,0-3.45-3.45h-.77v-.77a2.07,2.07,0,0,0-2.07-2.07Z"/><path class="cls-3" d="M590,348.47V326.53a2.7,2.7,0,0,0-2.69-2.69H562.41a2.7,2.7,0,0,0-2.68,2.69v20.79l-.32.22-1.81,1.31v4h34.56v-2.45l-1.81-1.31-.32-.23v-.38Zm-4.22-26.15h0a1.35,1.35,0,0,0-.38-.93h0a1.32,1.32,0,0,0-.93-.39H565.25a1.31,1.31,0,0,0-1.3,1.31h21.86Zm-23.38,0h0a2.83,2.83,0,0,1,2.82-2.83h4.65a3.79,3.79,0,0,1,1.36-1.37,7.37,7.37,0,0,1,7.24,0,3.79,3.79,0,0,1,1.36,1.37h4.64a2.83,2.83,0,0,1,2,.83h0a2.8,2.8,0,0,1,.83,2h0a4.22,4.22,0,0,1,4.21,4.21v21.55l1.81,1.31.32.23v4.74h-37.6v-6.28l.32-.23,1.81-1.3v-20a4.22,4.22,0,0,1,4.2-4.21Zm15.4-2.84-.13-.09a6,6,0,0,0-5.64,0l-.13.09Z"/><path class="cls-2" d="M558.65,335.91l32.63,1.71a1.71,1.71,0,0,1,1.61,1.79h0A1.7,1.7,0,0,1,591.1,341l-32.62-1.71a1.72,1.72,0,0,1-1.62-1.79h0a1.71,1.71,0,0,1,1.79-1.61Zm0,11.6,32.63,1.71a1.71,1.71,0,0,1,1.61,1.79h0a1.7,1.7,0,0,1-1.79,1.61l-32.62-1.71a1.72,1.72,0,0,1-1.62-1.79h0a1.72,1.72,0,0,1,1.79-1.61Zm0-5.8,32.63,1.71a1.71,1.71,0,0,1,1.61,1.79h0a1.7,1.7,0,0,1-1.79,1.61l-32.62-1.71a1.72,1.72,0,0,1-1.62-1.79h0a1.71,1.71,0,0,1,1.79-1.61Zm0-11.61,32.63,1.71a1.71,1.71,0,0,1,1.61,1.79h0a1.7,1.7,0,0,1-1.79,1.61l-32.62-1.71a1.72,1.72,0,0,1-1.62-1.79h0A1.71,1.71,0,0,1,558.65,330.1Z"/><path class="cls-3" d="M558.69,329.35l32.63,1.71a2.46,2.46,0,0,1,2.33,2.58,2.46,2.46,0,0,1-2.58,2.33l-32.59-1.71h-.05a2.5,2.5,0,0,1-1.69-.81,2.39,2.39,0,0,1-.63-1.73h0v0a2.41,2.41,0,0,1,.81-1.69,2.44,2.44,0,0,1,1.77-.63Zm0,17.41,32.63,1.71a2.42,2.42,0,0,1,1.7.81,2.46,2.46,0,0,1-1.95,4.1l-32.63-1.71a2.42,2.42,0,0,1-1.7-.81,2.44,2.44,0,0,1-.63-1.77,2.42,2.42,0,0,1,.81-1.7,2.44,2.44,0,0,1,1.77-.63ZM591.24,350l-32.63-1.71a1,1,0,0,0-.68.24,1,1,0,0,0-.31.65,1,1,0,0,0,.24.69,1,1,0,0,0,.65.31l32.63,1.71a.93.93,0,0,0,.68-.25,1,1,0,0,0,.32-.65.94.94,0,0,0-.25-.68.92.92,0,0,0-.65-.31Zm-32.55-9a2.44,2.44,0,0,0-1.77.63,2.42,2.42,0,0,0-.81,1.7v0h0a2.39,2.39,0,0,0,.63,1.73,2.45,2.45,0,0,0,1.69.81h.05l32.59,1.71h0a2.43,2.43,0,0,0,1.73-.63,2.47,2.47,0,0,0,.66-1h.11l0-.72a2.49,2.49,0,0,0-.63-1.77h0a2.42,2.42,0,0,0-1.7-.81L558.69,341Zm32.55,3.22a.92.92,0,0,1,.65.31h0a.94.94,0,0,1,.23.54v.18a.93.93,0,0,1-.31.61,1,1,0,0,1-.67.25h0l-32.59-1.7h0a.89.89,0,0,1-.63-.31,1,1,0,0,1-.24-.68v0a.94.94,0,0,1,1-.87l32.63,1.71Zm-32.55-9a2.44,2.44,0,0,0-1.77.63,2.41,2.41,0,0,0-.81,1.69v0h0a2.41,2.41,0,0,0,.63,1.73,2.5,2.5,0,0,0,1.69.81h.05l32.59,1.71a2.46,2.46,0,0,0,2.58-2.33,2.44,2.44,0,0,0-.63-1.77,2.42,2.42,0,0,0-1.7-.81l-32.63-1.71Zm32.55,3.22a.92.92,0,0,1,.65.31.94.94,0,0,1,.25.68,1,1,0,0,1-1,.9l-32.63-1.71h0a.93.93,0,0,1-.63-.31,1,1,0,0,1-.24-.68v0a.94.94,0,0,1,1-.87l32.63,1.71Zm0-5.81-32.63-1.71a.94.94,0,0,0-1,.87v0a1,1,0,0,0,.24.68.93.93,0,0,0,.63.31h0l32.63,1.71a1,1,0,0,0,1-.9.94.94,0,0,0-.25-.68A.92.92,0,0,0,591.24,332.57Z"/><path class="cls-4" d="M556,354.36a5.76,5.76,0,0,0-3.32,5.21c0,11.27-3.73,17.39-10.14,26.07-6.66,9-10.43,15.76-10.43,27.42a42.78,42.78,0,1,0,85.56,0c0-11.66-3.77-18.39-10.43-27.42-6.41-8.68-10.14-14.8-10.14-26.07a5.76,5.76,0,0,0-3.32-5.21Z"/><path class="cls-5" d="M574.88,453.37a40.32,40.32,0,0,0,40.31-40.31c0-12.47-5-19.31-10.09-26.15-5.23-7.09-10.48-14.19-10.48-27.34a3.29,3.29,0,0,0-3.29-3.28H558.42a3.31,3.31,0,0,0-3.29,3.28c0,13.15-5.24,20.25-10.47,27.34-5,6.84-10.09,13.68-10.09,26.15a40.3,40.3,0,0,0,40.31,40.31Z"/><path class="cls-6" d="M573.67,354.57c-.27,15.4,0,32.08-2.54,47.33a8.89,8.89,0,0,1,3.75.57,8.93,8.93,0,0,1,3.35-.58c-2.89-15-2.24-32.12-2.16-47.32h1.64c-.09,15.28-.74,32.41,2.23,47.51l.55.14a8.65,8.65,0,0,1,4.79,3.38h0A2.63,2.63,0,0,1,585,409h0a2.64,2.64,0,0,1-1.87.78c-1.67,0-3.29-1.14-4.52-6.23a7.23,7.23,0,0,0-1.8.09,5.82,5.82,0,0,1,1.56,2.58,6,6,0,0,1,.2,2.54,4.46,4.46,0,0,1-.94,2.25,3.39,3.39,0,0,1-2.73,1.27,3.42,3.42,0,0,1-2.74-1.27,4.55,4.55,0,0,1-.94-2.25,6.13,6.13,0,0,1,.2-2.54h0a5.93,5.93,0,0,1,1.57-2.58,7.44,7.44,0,0,0-2.16-.06c-1.06,5.05-2.47,6.2-4.16,6.2a2.66,2.66,0,0,1-1.88-.78h0a2.66,2.66,0,0,1-.66-2.67,3.3,3.3,0,0,1,.36-.73h0a8.65,8.65,0,0,1,4.79-3.38l.16,0c2.65-15.34,2.33-32.12,2.6-47.61Zm-7,53.57c.89,0,1.68-.8,2.42-4.13a7,7,0,0,0-3.25,2.53h0a.87.87,0,0,0-.14.27,1.06,1.06,0,0,0,0,.31,1,1,0,0,0,.29.71h0a1,1,0,0,0,.72.3Zm10.13-1.45a2,2,0,1,0-3.8,0h0a4.58,4.58,0,0,0-.15,1.86,2.88,2.88,0,0,0,.58,1.43,2,2,0,0,0,2.94,0,2.93,2.93,0,0,0,.58-1.43,4.52,4.52,0,0,0-.15-1.85Zm7.16-.15a7,7,0,0,0-3.6-2.65c.88,3.44,1.83,4.25,2.77,4.25a1,1,0,0,0,.72-.3h0a1,1,0,0,0,.29-.71,1.06,1.06,0,0,0,0-.31.84.84,0,0,0-.13-.27Z"/><path class="cls-7" d="M559,439c3.61-3-9.83-19.06-13.45-16S555.36,442,559,439Z"/><path class="cls-7" d="M543,419.1c3.33-.07,3-14.85-.3-14.78S539.65,419.17,543,419.1Z"/><path class="cls-8" d="M551.22,362.41h47.27V320.93c0-17.62-47.27-17.6-47.27,0Z"/><rect class="cls-9" x="556.92" y="320.93" width="1.65" height="36.54"/><rect class="cls-10" x="572.8" y="0.27" width="4.11" height="308.28"/><polygon class="cls-8" points="571.15 308.55 578.56 308.55 577.73 290.31 571.98 290.31 571.15 308.55"/><path class="cls-2" d="M147.34,262.71c.87-1.13,3.08-1.24,5.16-.19s3.3,2.9,2.9,4.27l4.56,2.3a2.07,2.07,0,0,1,.92,2.78l-.36.69.7.35a3.46,3.46,0,0,1,1.52,4.63l-9.21,18.21,1.21,2.33-2.32,4.58-32.2-16.28,1.63-3.21,2.59-.41,9.89-19.58a3.47,3.47,0,0,1,4.64-1.52l.69.35.35-.69a2.07,2.07,0,0,1,2.78-.91Z"/><path class="cls-3" d="M125.11,283.1l9.9-19.57a2.72,2.72,0,0,1,1.57-1.34,2.67,2.67,0,0,1,2,.15l22.24,11.25a2.69,2.69,0,0,1,1.19,3.61l-9.2,18.2-.18.35.18.35,1,2-1.8,3.56-30.85-15.59,1.11-2.19,2.21-.35.38-.06.17-.35Zm15.57-21.42,19.51,9.86h0a1.3,1.3,0,0,0,.08-1,1.28,1.28,0,0,0-.65-.76l-17.18-8.69a1.32,1.32,0,0,0-1-.07h0a1.28,1.28,0,0,0-.76.65v0Zm20.87,10.54h0a2.83,2.83,0,0,0-1.25-3.8l-4.14-2.09a3.86,3.86,0,0,0-.59-1.84,7.42,7.42,0,0,0-6.46-3.27,3.84,3.84,0,0,0-1.84.62l-4.14-2.1a2.81,2.81,0,0,0-2.16-.16h0a2.84,2.84,0,0,0-1.64,1.41h0a4.23,4.23,0,0,0-5.65,1.86l-9.73,19.23-2.2.35-.39.07-.17.34-1.63,3.22-.34.67.68.34,32.2,16.28.68.34.34-.68,2.32-4.58.17-.34-.18-.35-1-2,9-17.87a4.23,4.23,0,0,0-1.86-5.65Zm-12.47-9.48,5.27,2.66-.08-.14a5.49,5.49,0,0,0-2.19-1.91,5.58,5.58,0,0,0-2.84-.63Z"/><path class="cls-2" d="M158.79,286.06l-29.9-13.2a1.72,1.72,0,0,0-2.25.87h0a1.71,1.71,0,0,0,.88,2.24l29.89,13.2a1.69,1.69,0,0,0,2.24-.87h0a1.7,1.7,0,0,0-.86-2.24Zm-5.24,10.35a1.7,1.7,0,0,1,.87,2.24h0a1.7,1.7,0,0,1-2.24.87l-29.9-13.19a1.73,1.73,0,0,1-.87-2.25h0a1.73,1.73,0,0,1,2.25-.87l29.89,13.2Zm2.61-5.18a1.7,1.7,0,0,1,.88,2.24h0a1.72,1.72,0,0,1-2.25.88l-29.89-13.2a1.7,1.7,0,0,1-.87-2.24h0a1.71,1.71,0,0,1,2.25-.87l29.88,13.19Zm5.25-10.36a1.72,1.72,0,0,1,.87,2.24h0A1.71,1.71,0,0,1,160,284l-29.89-13.19a1.7,1.7,0,0,1-.87-2.24h0a1.7,1.7,0,0,1,2.24-.87Z"/><path class="cls-3" d="M161.71,280.18,131.82,267a2.46,2.46,0,1,0-2,4.5l29.86,13.18h0a2.46,2.46,0,0,0,3.22-1.22h0l0,0a2.46,2.46,0,0,0-1.26-3.24Zm-7.85,15.54a2.46,2.46,0,0,1-.11,4.54,2.5,2.5,0,0,1-1.88,0L122,287a2.46,2.46,0,0,1,2-4.5l29.89,13.2Zm-30.51-11.81,29.89,13.19a1,1,0,0,1,.5.53.95.95,0,0,1-1.26,1.2l-29.89-13.19a1,1,0,0,1-.5-.53.9.9,0,0,1,0-.72,1,1,0,0,1,.52-.5,1,1,0,0,1,.72,0Zm33.12,6.63a2.41,2.41,0,0,1,1.3,1.36,2.48,2.48,0,0,1,0,1.89l0,0h0a2.43,2.43,0,0,1-1.34,1.26,2.45,2.45,0,0,1-1.88,0h0L124.6,281.85l0,0h0a2.5,2.5,0,0,1-1.27-1.35,2.43,2.43,0,0,1-.14-1.17l-.1-.05.29-.66a2.44,2.44,0,0,1,1.36-1.3h0a2.45,2.45,0,0,1,1.88,0l29.89,13.2ZM126,278.73l29.89,13.19a1,1,0,0,1,.5.53.94.94,0,0,1,0,.7v0a1,1,0,0,1-.53.5.94.94,0,0,1-.7,0h0l-29.86-13.18h0a.94.94,0,0,1-.5-.52,1,1,0,0,1,0-.69l.08-.16a.92.92,0,0,1,.46-.37h0a1,1,0,0,1,.72,0Zm33.12,6.63a2.49,2.49,0,0,1,1.3,1.37,2.45,2.45,0,0,1,0,1.88l0,0h0A2.46,2.46,0,0,1,159,289.9a2.43,2.43,0,0,1-1.89,0h0l-29.86-13.18a2.47,2.47,0,0,1-1.26-3.25,2.45,2.45,0,0,1,1.36-1.29,2.48,2.48,0,0,1,1.89,0l29.89,13.19Zm-30.5-11.81,29.89,13.2a.92.92,0,0,1,.49.52.9.9,0,0,1,0,.7v0a1,1,0,0,1-.52.49,1,1,0,0,1-.7,0h0l-29.9-13.2a1,1,0,0,1-.49-.52,1,1,0,0,1,0-.72,1,1,0,0,1,.52-.5,1,1,0,0,1,.73,0Zm2.61-5.18,29.9,13.19a1,1,0,0,1,.5.53.94.94,0,0,1,0,.7v0a1,1,0,0,1-.52.5,1,1,0,0,1-.7,0h0L130.45,270.1a.93.93,0,0,1-.5-.53.91.91,0,0,1,.54-1.21A.92.92,0,0,1,131.2,268.37Z"/><path class="cls-11" d="M152.84,303.72a5.77,5.77,0,0,1,.61,6.15c-5.08,10.06-4.51,17.2-2.71,27.84,1.87,11.06,2.2,18.77-3.06,29.17a42.78,42.78,0,1,1-76.36-38.6C76.57,317.88,83,313.57,93,308.52c9.63-4.86,15.72-8.63,20.81-18.69a5.76,5.76,0,0,1,5.31-3.15Z"/><path class="cls-12" d="M137,295.93c-6.71,13.86-14.51,28.62-19.09,43.39a9,9,0,0,0-3.6-1.19,8.81,8.81,0,0,0-2.74-2c9.37-12.11,16.5-27.65,23.28-41.25l-1.46-.74c-6.82,13.68-14,29.26-23.43,41.4l-.55-.13a8.68,8.68,0,0,0-5.8.86h0a2.81,2.81,0,0,0-.65.48,2.56,2.56,0,0,0-.47.66,2.62,2.62,0,0,0-.15,2h0a2.66,2.66,0,0,0,1.32,1.54c1.49.75,3.45.47,6.85-3.53a7.81,7.81,0,0,1,1.56.9,5.82,5.82,0,0,0-2.55,1.59,6,6,0,0,0-1.33,2.19,4.48,4.48,0,0,0-.18,2.42,3.58,3.58,0,0,0,4.89,2.47,4.58,4.58,0,0,0,1.85-1.58,6.18,6.18,0,0,0,1-2.36h0a5.72,5.72,0,0,0-.23-3,7.41,7.41,0,0,1,2,.92c-1.33,5-.59,6.65.92,7.41a2.67,2.67,0,0,0,2,.16h0a2.61,2.61,0,0,0,1.54-1.33,2.32,2.32,0,0,0,.25-.77,2.74,2.74,0,0,0,0-.81h0a8.7,8.7,0,0,0-2.74-5.18l-.13-.11c4.56-14.88,12.41-29.71,19.16-43.66l-1.46-.74Zm-17.9,51c-.8-.4-1.15-1.47-.3-4.77a6.91,6.91,0,0,1,1.75,3.73h0a.76.76,0,0,1,0,.3,1,1,0,0,1-.1.29,1,1,0,0,1-.58.5h0a1,1,0,0,1-.77-.07ZM110.68,341a4,4,0,0,1,2.79-1.3,4,4,0,0,1,.6,3h0a4.4,4.4,0,0,1-.7,1.72,2.8,2.8,0,0,1-1.16,1,2,2,0,0,1-2.63-1.32,3,3,0,0,1,.13-1.54,4.4,4.4,0,0,1,1-1.59Zm-6.33-3.36a7,7,0,0,1,4.41-.74c-2.33,2.67-3.55,3-4.39,2.54a1,1,0,0,1-.5-.59h0a1,1,0,0,1,.06-.77,1.56,1.56,0,0,1,.17-.25,1.3,1.3,0,0,1,.25-.18Z"/><path class="cls-8" d="M153.47,313.06l-42.19-21.33,18.71-37c7.95-15.72,50.13,5.62,42.19,21.33Z"/><rect class="cls-9" x="139.85" y="288.57" width="36.54" height="1.65" transform="translate(-171.49 299.93) rotate(-63.18)"/><polygon class="cls-8" points="158.5 255.25 154.83 253.4 282.79 0.28 287.4 0.28 158.5 255.25"/><polygon class="cls-8" points="159.98 256 153.37 252.66 162.33 236.75 167.47 239.35 159.98 256"/><path class="cls-12" d="M80.92,404.55h0a2.44,2.44,0,0,0-3.28,1.07L70,420.68A2.45,2.45,0,0,0,71.1,424h0a2.46,2.46,0,0,0,3.28-1.08L82,407.83a2.45,2.45,0,0,0-1.08-3.28ZM113,411.26h0a2.44,2.44,0,0,0-2.3,2.58l.94,16.84a2.44,2.44,0,0,0,2.57,2.31h0a2.45,2.45,0,0,0,2.3-2.58l-.94-16.85a2.45,2.45,0,0,0-2.57-2.3ZM74.83,295h0a2.46,2.46,0,0,0,.71-3.38L66.3,277.52a2.45,2.45,0,0,0-3.38-.72h0a2.46,2.46,0,0,0-.71,3.39l9.24,14.12a2.44,2.44,0,0,0,3.38.71ZM53,319.45h0a2.45,2.45,0,0,0-1.08-3.28l-15.06-7.61a2.44,2.44,0,0,0-3.28,1.08h0a2.45,2.45,0,0,0,1.08,3.28l15.06,7.61A2.45,2.45,0,0,0,53,319.45Zm-6.71,32.09h0a2.45,2.45,0,0,0-2.58-2.3l-16.84.94a2.44,2.44,0,0,0-2.31,2.57h0a2.45,2.45,0,0,0,2.57,2.3L44,354.11a2.45,2.45,0,0,0,2.31-2.57Zm10.23,31.15h0a2.46,2.46,0,0,0-3.38-.71L39,391.22a2.44,2.44,0,0,0-.7,3.38h0a2.43,2.43,0,0,0,3.37.7l14.13-9.23A2.46,2.46,0,0,0,56.49,382.69Z"/><path class="cls-2" d="M226,294.89c.69-1.25,2.86-1.68,5.07-.95s3.69,2.38,3.5,3.8l4.84,1.61a2.07,2.07,0,0,1,1.31,2.61l-.24.74.74.24a3.46,3.46,0,0,1,2.18,4.36L237,326.66l1.53,2.13-1.62,4.87-34.23-11.39,1.14-3.41,2.5-.79,6.92-20.81a3.46,3.46,0,0,1,4.36-2.19l.74.25.24-.74a2.07,2.07,0,0,1,2.61-1.31Z"/><path class="cls-3" d="M207,318.31l6.92-20.81a2.63,2.63,0,0,1,1.35-1.55,2.69,2.69,0,0,1,2.05-.16L241,303.66a2.69,2.69,0,0,1,1.71,3.4l-6.44,19.36-.12.36.23.32,1.3,1.81-1.26,3.79-32.79-10.91.77-2.33,2.13-.67.37-.11.13-.37Zm12.25-23.47,20.75,6.9h0a1.27,1.27,0,0,0-.07-1,1.32,1.32,0,0,0-.75-.66L220.92,294a1.33,1.33,0,0,0-1,.08h0a1.31,1.31,0,0,0-.65.75v0Zm22.19,7.38v0a2.85,2.85,0,0,0-.16-2.15,2.79,2.79,0,0,0-1.64-1.42l-4.4-1.47a3.81,3.81,0,0,0-.86-1.73,7.4,7.4,0,0,0-6.86-2.29,3.89,3.89,0,0,0-1.73.88l-4.41-1.47a2.84,2.84,0,0,0-2.15.16h0a2.85,2.85,0,0,0-1.41,1.63v0h0a4.23,4.23,0,0,0-5.32,2.67l-6.8,20.45-2.13.67-.38.11-.12.37L201.93,322l-.24.72.72.24,34.23,11.39.72.24.24-.72,1.62-4.87.12-.37-.23-.31-1.3-1.82,6.32-19a4.14,4.14,0,0,0-.24-3.21,4.21,4.21,0,0,0-2.43-2.11Zm-13.72-7.56,5.61,1.87-.1-.13a5.91,5.91,0,0,0-5.35-1.78Z"/><path class="cls-2" d="M240.75,316.3l-31.51-8.67a1.7,1.7,0,0,0-2.09,1.19h0a1.71,1.71,0,0,0,1.19,2.09l31.5,8.68a1.72,1.72,0,0,0,2.09-1.19h0a1.71,1.71,0,0,0-1.18-2.1Zm-3.67,11a1.71,1.71,0,0,1,1.19,2.09h0a1.7,1.7,0,0,1-2.09,1.19l-31.5-8.67a1.71,1.71,0,0,1-1.19-2.1h0a1.72,1.72,0,0,1,2.09-1.19l31.5,8.68Zm1.83-5.5a1.69,1.69,0,0,1,1.19,2.09h0a1.71,1.71,0,0,1-2.09,1.19l-31.5-8.68a1.69,1.69,0,0,1-1.19-2.09h0a1.71,1.71,0,0,1,2.09-1.19l31.5,8.68Zm3.67-11a1.72,1.72,0,0,1,1.19,2.09h0a1.71,1.71,0,0,1-2.1,1.19l-31.5-8.68A1.7,1.7,0,0,1,209,303.3h0a1.72,1.72,0,0,1,2.1-1.19Z"/><path class="cls-3" d="M242.78,310.06l-31.5-8.68a2.48,2.48,0,0,0-3,1.72,2.46,2.46,0,0,0,1.72,3l31.46,8.67h0a2.46,2.46,0,0,0,3-1.68h0v0a2.5,2.5,0,0,0-.24-1.87,2.45,2.45,0,0,0-1.48-1.16Zm-5.5,16.52-31.5-8.68a2.51,2.51,0,0,0-1.87.24,2.46,2.46,0,0,0,.56,4.51L236,331.32a2.46,2.46,0,1,0,1.3-4.74Zm-31.9-7.21,31.5,8.67a1,1,0,0,1,.66,1.16,1,1,0,0,1-.45.57.92.92,0,0,1-.71.09l-31.5-8.67a1,1,0,0,1-.57-.45.92.92,0,0,1-.09-.71.94.94,0,0,1,1.16-.66Zm33.74,1.71a2.46,2.46,0,0,1,1.71,3v0h0a2.47,2.47,0,0,1-3,1.68h0l-31.46-8.67h0a2.46,2.46,0,0,1-1.45-1.14,2.54,2.54,0,0,1-.32-1.14l-.1,0,.19-.69a2.44,2.44,0,0,1,1.15-1.48h0a2.42,2.42,0,0,1,1.87-.24l31.51,8.68Zm-31.91-7.22,31.5,8.68a.94.94,0,0,1,.57.44,1,1,0,0,1,.1.7v0a.94.94,0,0,1-1.14.66h0l-31.47-8.67h0a.94.94,0,0,1-.67-1.12l.06-.17a.93.93,0,0,1,.39-.44h0a.94.94,0,0,1,.72-.09Zm33.73,1.71a2.46,2.46,0,0,1,1.72,3v0h0a2.44,2.44,0,0,1-1.14,1.44,2.47,2.47,0,0,1-1.87.24h0l-31.46-8.66a2.46,2.46,0,1,1,1.3-4.74l31.5,8.67ZM209,308.36l31.5,8.67a1,1,0,0,1,.57.45.92.92,0,0,1,.1.69v0a1,1,0,0,1-.44.56.92.92,0,0,1-.69.1h0l-31.5-8.67a1,1,0,0,1-.57-.45.94.94,0,0,1,1.07-1.37Zm1.83-5.52,31.51,8.68a1,1,0,0,1,.56.45.92.92,0,0,1,.1.69v0a.94.94,0,0,1-1.13.67h0l-31.5-8.68a.94.94,0,0,1-.57-.44.88.88,0,0,1-.08-.71.86.86,0,0,1,.44-.57A.93.93,0,0,1,210.87,302.84Z"/><path class="cls-11" d="M237.45,334.65a5.77,5.77,0,0,1,1.51,6c-3.56,10.7-2,17.68,1.39,27.94,3.47,10.67,4.92,18.25,1.24,29.31a42.78,42.78,0,0,1-81.19-27c3.68-11.06,9.39-16.26,18.55-22.72,8.83-6.22,14.29-10.84,17.85-21.54a5.76,5.76,0,0,1,4.8-3.89Z"/><path class="cls-12" d="M220.61,329.27C216,344,210.45,359.7,208.08,375a9.17,9.17,0,0,0-3.74-.65,9.08,9.08,0,0,0-3-1.61c7.49-13.35,12.27-29.76,17-44.21l-1.56-.52c-4.74,14.53-9.52,31-17.11,44.38l-.56,0a8.63,8.63,0,0,0-5.62,1.7h0a2.37,2.37,0,0,0-.57.57,2.73,2.73,0,0,0-.37.72,2.64,2.64,0,0,0,.15,2h0a2.66,2.66,0,0,0,1.53,1.33c1.58.52,3.48,0,6.25-4.49a7.21,7.21,0,0,1,1.69.65,5.86,5.86,0,0,0-2.3,2,6,6,0,0,0-1,2.35,4.52,4.52,0,0,0,.17,2.43,3.45,3.45,0,0,0,2.2,2.06,3.39,3.39,0,0,0,3-.34,4.47,4.47,0,0,0,1.6-1.83,6,6,0,0,0,.61-2.48h0a5.79,5.79,0,0,0-.67-2.94,7.11,7.11,0,0,1,2.06.62c-.58,5.13.39,6.67,2,7.2a2.68,2.68,0,0,0,2-.14h0a2.65,2.65,0,0,0,1.33-1.54,2.73,2.73,0,0,0,.13-.8,2.49,2.49,0,0,0-.11-.8h0a8.66,8.66,0,0,0-3.48-4.72l-.14-.09c2.33-15.39,7.93-31.21,12.56-46l-1.55-.52Zm-10.25,53c-.85-.28-1.35-1.29-1-4.68a7,7,0,0,1,2.29,3.43h0a1,1,0,0,1,0,.3,1,1,0,0,1-.05.3,1.06,1.06,0,0,1-.51.59h0a1,1,0,0,1-.77.05Zm-9.15-4.57a4,4,0,0,1,2.56-1.7,4.05,4.05,0,0,1,1,2.9h0a4.46,4.46,0,0,1-.44,1.8,2.83,2.83,0,0,1-1,1.17,1.79,1.79,0,0,1-1.61.17,1.82,1.82,0,0,1-1.18-1.09,2.83,2.83,0,0,1-.1-1.54,4.29,4.29,0,0,1,.73-1.71Zm-6.76-2.4A7,7,0,0,1,198.7,374c-1.91,3-3.07,3.45-4,3.16a1.07,1.07,0,0,1-.59-.51h0a1,1,0,0,1-.05-.77.92.92,0,0,1,.14-.28,1.47,1.47,0,0,1,.21-.22Z"/><path class="cls-8" d="M239.44,343.79l-44.86-14.92,13.09-39.36c5.56-16.71,50.41-1.78,44.86,14.92Z"/><rect class="cls-9" x="222.3" y="318.88" width="36.54" height="1.65" transform="translate(-138.73 447.05) rotate(-71.6)"/><polygon class="cls-8" points="235.96 285.88 232.05 284.58 326.63 0.28 330.97 0.28 235.96 285.88"/><polygon class="cls-8" points="237.52 286.4 230.5 284.06 237.03 267.02 242.5 268.83 237.52 286.4"/><path class="cls-12" d="M181.06,444.92h0a2.45,2.45,0,0,0-3.09,1.54l-5.32,16a2.44,2.44,0,0,0,1.54,3.09h0a2.44,2.44,0,0,0,3.09-1.54l5.33-16a2.44,2.44,0,0,0-1.55-3.08Zm32.73,1.94h0a2.45,2.45,0,0,0-1.9,2.88l3.39,16.53a2.44,2.44,0,0,0,2.88,1.9h0a2.43,2.43,0,0,0,1.9-2.88l-3.39-16.53a2.45,2.45,0,0,0-2.88-1.9Zm29.32-14.68h0a2.45,2.45,0,0,0-.21,3.45l11.2,12.62a2.45,2.45,0,0,0,3.45.2h0a2.45,2.45,0,0,0,.2-3.45l-11.2-12.61a2.44,2.44,0,0,0-3.44-.21Zm18-27.37h0a2.46,2.46,0,0,0,1.55,3.09l16,5.32a2.45,2.45,0,0,0,3.09-1.54h0a2.46,2.46,0,0,0-1.55-3.09l-16-5.32a2.45,2.45,0,0,0-3.09,1.54Zm1.94-32.73h0A2.44,2.44,0,0,0,266,374l16.53-3.39a2.44,2.44,0,0,0,1.9-2.88h0a2.45,2.45,0,0,0-2.89-1.9L265,369.2a2.46,2.46,0,0,0-1.9,2.88Zm-109.4,54.79h0a2.46,2.46,0,0,0-3.45-.21l-12.61,11.21a2.45,2.45,0,0,0-.21,3.45h0a2.46,2.46,0,0,0,3.45.2l12.62-11.2A2.46,2.46,0,0,0,153.69,426.87Z"/></g></g></svg>