<svg xmlns="http://www.w3.org/2000/svg" xmlns:xlink="http://www.w3.org/1999/xlink" viewBox="0 0 720.94 737.69"><defs><style>.cls-1{fill:none;}.cls-2{fill:#f8af00;}.cls-3{clip-path:url(#clip-path);}.cls-4{fill:#e3e0cc;}.cls-5{fill:#6f6f6e;}.cls-6{fill:#edeadd;}.cls-7{fill:#868686;}.cls-8{fill:#d85409;}.cls-9{fill:#e3e8ec;}.cls-10{fill:#fff;}.cls-11{fill:#225a80;}.cls-12{fill:#23608a;}.cls-13{fill:#eb6619;}.cls-14{fill:#003c5a;}.cls-15{fill:#002d44;}.cls-16{fill:#f6f5ee;}</style><clipPath id="clip-path" transform="translate(33.96 99.17)"><rect class="cls-1" width="649.49" height="572.45"/></clipPath></defs><g id="Calque_2" data-name="Calque 2"><g id="Calque_1-2" data-name="Calque 1"><rect class="cls-2" x="34.94" y="99.17" width="649.49" height="572.45"/><g class="cls-3"><path class="cls-4" d="M195,587.67a360.24,360.24,0,0,1-97.76-28.09c18.93-29.41,34.76-63.94,46.36-102.08a288.3,288.3,0,0,0,82.1,3.36A540.84,540.84,0,0,1,195,587.67Z" transform="translate(33.96 99.17)"/><path class="cls-5" d="M201.64,477.17a300,300,0,0,1-52.73-4.72l.15-.87A297.18,297.18,0,0,0,213.83,476l0,.88Q207.78,477.17,201.64,477.17Z" transform="translate(33.96 99.17)"/><path class="cls-5" d="M204.75,486.07a303.85,303.85,0,0,1-58.39-5.73l.17-.87a301.9,301.9,0,0,0,65.72,5.62l0,.88Q208.52,486.08,204.75,486.07Z" transform="translate(33.96 99.17)"/><path class="cls-5" d="M207.82,495a308.32,308.32,0,0,1-64.13-6.84l.19-.87a307.74,307.74,0,0,0,66.65,6.82V495Z" transform="translate(33.96 99.17)"/><path class="cls-5" d="M208.66,503.86a311.51,311.51,0,0,1-67.75-8.06l.2-.86a311.6,311.6,0,0,0,67.55,8Z" transform="translate(33.96 99.17)"/><path class="cls-5" d="M206.65,512.69A317.31,317.31,0,0,1,138,503.36l.21-.85a316.23,316.23,0,0,0,68.45,9.29Z" transform="translate(33.96 99.17)"/><path class="cls-5" d="M204.5,521.42A322.24,322.24,0,0,1,135,510.81l.22-.85a321.81,321.81,0,0,0,69.32,10.58Z" transform="translate(33.96 99.17)"/><path class="cls-5" d="M202.22,530.07a327.86,327.86,0,0,1-70.35-11.93l.25-.85a327.14,327.14,0,0,0,70.15,11.9Z" transform="translate(33.96 99.17)"/><path class="cls-5" d="M199.81,538.62a332.74,332.74,0,0,1-71.17-13.28l.26-.85a331,331,0,0,0,71,13.25Z" transform="translate(33.96 99.17)"/><path class="cls-5" d="M197.27,547.08a336.8,336.8,0,0,1-72-14.67l.26-.84a336.46,336.46,0,0,0,71.78,14.63Z" transform="translate(33.96 99.17)"/><path class="cls-5" d="M194.6,555.44a342.27,342.27,0,0,1-72.74-16.08l.29-.84a341,341,0,0,0,72.54,16Z" transform="translate(33.96 99.17)"/><path class="cls-5" d="M191.8,563.69a347.24,347.24,0,0,1-73.48-17.51l.3-.84a346,346,0,0,0,73.29,17.48Z" transform="translate(33.96 99.17)"/><path class="cls-5" d="M188.88,571.85a353,353,0,0,1-74.2-19L115,552A351.29,351.29,0,0,0,189,571Z" transform="translate(33.96 99.17)"/><path class="cls-6" d="M330.46,481.84a271.18,271.18,0,0,1-57.79,67.9C234.1,531.61,200.53,505.8,173,475.66c22.19-7.74,43.22-20.45,61.66-37C262.43,458.88,294.85,474.45,330.46,481.84Z" transform="translate(33.96 99.17)"/><path class="cls-5" d="M190.32,482.67,190,482a192.3,192.3,0,0,0,47.53-31.12l.51.58A192.92,192.92,0,0,1,190.32,482.67Z" transform="translate(33.96 99.17)"/><path class="cls-5" d="M196.45,488.4l-.34-.7A197.92,197.92,0,0,0,243.61,455l.53.57A199,199,0,0,1,196.45,488.4Z" transform="translate(33.96 99.17)"/><path class="cls-5" d="M202.75,494l-.36-.69A203.88,203.88,0,0,0,249.83,459l.54.56A205.13,205.13,0,0,1,202.75,494Z" transform="translate(33.96 99.17)"/><path class="cls-5" d="M209.2,499.41l-.38-.68c4.49-2.48,9-5.18,13.3-8l.42.65C218.19,494.21,213.7,496.92,209.2,499.41Z" transform="translate(33.96 99.17)"/><path class="cls-5" d="M215.81,504.69l-.39-.67c4.49-2.63,9-5.48,13.3-8.48l.44.63C224.81,499.18,220.32,502.05,215.81,504.69Z" transform="translate(33.96 99.17)"/><path class="cls-5" d="M222.58,509.8l-.41-.66c4.5-2.78,9-5.79,13.29-8.94l.46.63C231.58,504,227.09,507,222.58,509.8Z" transform="translate(33.96 99.17)"/><path class="cls-5" d="M229.5,514.74l-.42-.65c4.5-2.94,9-6.1,13.28-9.39l.47.62C238.5,508.62,234,511.79,229.5,514.74Z" transform="translate(33.96 99.17)"/><path class="cls-5" d="M236.58,519.5l-.44-.64a234.33,234.33,0,0,0,46.63-42.52l.59.5A235,235,0,0,1,236.58,519.5Z" transform="translate(33.96 99.17)"/><path class="cls-5" d="M243.81,524.08l-.45-.62a241.35,241.35,0,0,0,46.36-44.19l.6.48A241.4,241.4,0,0,1,243.81,524.08Z" transform="translate(33.96 99.17)"/><path class="cls-5" d="M251.19,528.47l-.47-.61a247.17,247.17,0,0,0,46-45.87l.62.47A247.51,247.51,0,0,1,251.19,528.47Z" transform="translate(33.96 99.17)"/><path class="cls-5" d="M258.71,532.67l-.48-.61a253.23,253.23,0,0,0,45.71-47.55l.62.46A254.17,254.17,0,0,1,258.71,532.67Z" transform="translate(33.96 99.17)"/><path class="cls-5" d="M266.38,536.66l-.5-.6a259.59,259.59,0,0,0,45.33-49.25l.63.45A260.8,260.8,0,0,1,266.38,536.66Z" transform="translate(33.96 99.17)"/><path class="cls-5" d="M246.15,503.28l-.23-.14c-7.78-4.79-15.47-10-22.84-15.55l.46-.61c7.28,5.46,14.87,10.62,22.55,15.35a233.34,233.34,0,0,0,30.14-28.83l.58.51a234.6,234.6,0,0,1-30.45,29.1Z" transform="translate(33.96 99.17)"/><path class="cls-5" d="M248.53,498.64l-1.37,1.12q-3-1.86-6-3.8l1.38-1.08Q245.49,496.8,248.53,498.64Z" transform="translate(33.96 99.17)"/><path class="cls-5" d="M250.35,497.12,249,498.26q-5-3-9.76-6.14l1.37-1.07Q245.4,494.17,250.35,497.12Z" transform="translate(33.96 99.17)"/><path class="cls-5" d="M254.91,493.18l-1.34,1.18q-5.76-3.35-11.33-6.94l1.35-1.09Q249.16,489.87,254.91,493.18Z" transform="translate(33.96 99.17)"/><path class="cls-5" d="M256.68,491.6l-1.33,1.19q-6.91-4-13.56-8.28l1.34-1.09Q249.76,487.68,256.68,491.6Z" transform="translate(33.96 99.17)"/><path class="cls-5" d="M261.1,487.48l-1.29,1.23c-3.24-1.79-6.42-3.63-9.57-5.53l1.31-1.16C254.69,483.89,257.88,485.72,261.1,487.48Z" transform="translate(33.96 99.17)"/><path class="cls-5" d="M262.82,485.82c-.42.42-.85.83-1.28,1.24q-9.68-5.25-18.81-11.2l1.31-1.12Q253.16,480.62,262.82,485.82Z" transform="translate(33.96 99.17)"/><path class="cls-5" d="M267.12,481.52l-1.26,1.28q-7-3.65-13.72-7.69l1.28-1.19Q260.13,477.91,267.12,481.52Z" transform="translate(33.96 99.17)"/><path class="cls-5" d="M268.78,479.8l-1.24,1.29q-6-3.09-11.83-6.47L257,473.4Q262.77,476.73,268.78,479.8Z" transform="translate(33.96 99.17)"/><path class="cls-5" d="M272.94,475.33l-1.22,1.33q-8.24-4.08-16.1-8.68l1.24-1.23Q264.72,471.29,272.94,475.33Z" transform="translate(33.96 99.17)"/><path class="cls-5" d="M274.55,473.54l-1.21,1.34q-10.5-5.13-20.43-11.11l1.23-1.21Q264.06,468.46,274.55,473.54Z" transform="translate(33.96 99.17)"/><path class="cls-6" d="M549.94,524.34c-22.76,24.37-44,48.17-64.22,71.94-29.59-9.46-60.84-29.53-89.12-60.9,18.39-18.2,37.4-36.14,57.67-54.06C485.66,507,519.09,521,549.94,524.34Z" transform="translate(33.96 99.17)"/><path class="cls-5" d="M413,539.26l-.59-.59c15.21-15.14,30-29.25,45.17-43.13l.57.61C443,510,428.2,524.13,413,539.26Z" transform="translate(33.96 99.17)"/><path class="cls-5" d="M419.1,545l-.59-.59c15.31-15.41,30.23-29.82,45.63-44.06l.57.61C449.32,515.16,434.4,529.57,419.1,545Z" transform="translate(33.96 99.17)"/><path class="cls-5" d="M425.27,550.35l-.6-.59c15.41-15.68,30.48-30.4,46.06-45l.57.61C455.73,520,440.67,534.67,425.27,550.35Z" transform="translate(33.96 99.17)"/><path class="cls-5" d="M431.48,555.41l-.6-.58c15.5-16,30.7-31,46.48-45.94l.57.61C462.17,524.44,447,539.46,431.48,555.41Z" transform="translate(33.96 99.17)"/><path class="cls-5" d="M437.73,560.15l-.6-.58C452.71,543.35,468,528,484,512.69l.58.61C468.63,528.61,453.3,543.93,437.73,560.15Z" transform="translate(33.96 99.17)"/><path class="cls-5" d="M444,564.57l-.61-.57c15.64-16.48,31.09-32.12,47.24-47.83l.58.6C475.09,532.47,459.65,548.1,444,564.57Z" transform="translate(33.96 99.17)"/><path class="cls-5" d="M450.32,568.68l-.61-.58c15.75-16.79,31.32-32.75,47.59-48.77l.59.59C481.63,535.94,466.07,551.89,450.32,568.68Z" transform="translate(33.96 99.17)"/><path class="cls-5" d="M456.64,572.47l-.62-.57c15.82-17.07,31.49-33.34,47.92-49.74l.6.59C488.11,539.15,472.44,555.41,456.64,572.47Z" transform="translate(33.96 99.17)"/><path class="cls-5" d="M463,575.94l-.62-.57c15.85-17.31,31.63-33.9,48.23-50.7l.6.59C494.57,542.05,478.8,558.63,463,575.94Z" transform="translate(33.96 99.17)"/><path class="cls-5" d="M469.27,579.1l-.62-.56c15.92-17.62,31.79-34.52,48.52-51.67l.6.59C501.05,544.6,485.19,561.49,469.27,579.1Z" transform="translate(33.96 99.17)"/><path class="cls-5" d="M475.57,582l-.63-.56c16-17.92,32-35.14,48.79-52.64l.61.58C507.51,546.82,491.56,564,475.57,582Z" transform="translate(33.96 99.17)"/><path class="cls-5" d="M481.84,584.49l-.63-.56c15.78-17.9,32.28-35.94,49-53.61l.61.58C514.1,548.56,497.61,566.59,481.84,584.49Z" transform="translate(33.96 99.17)"/><path class="cls-4" d="M416.76,616.53a444.65,444.65,0,0,1-98.06-50.67c25.77-22.58,49.24-50.7,68.94-83.23a360.54,360.54,0,0,0,86.29,23.74A451.45,451.45,0,0,1,416.76,616.53Z" transform="translate(33.96 99.17)"/><path class="cls-5" d="M458.32,518.35a371.47,371.47,0,0,1-67.91-20.46l.33-.83a371.76,371.76,0,0,0,67.75,20.41Z" transform="translate(33.96 99.17)"/><path class="cls-5" d="M454.86,526.37a378.28,378.28,0,0,1-68.69-21.78l.35-.82a378.87,378.87,0,0,0,68.53,21.73Z" transform="translate(33.96 99.17)"/><path class="cls-5" d="M451.28,534.29a384.71,384.71,0,0,1-69.44-23.13l.36-.82a384,384,0,0,0,69.28,23.08Z" transform="translate(33.96 99.17)"/><path class="cls-5" d="M447.56,542.1a391.19,391.19,0,0,1-70.16-24.5l.37-.82a390.75,390.75,0,0,0,70,24.45Z" transform="translate(33.96 99.17)"/><path class="cls-5" d="M443.71,549.79a397,397,0,0,1-70.85-25.89l.38-.81a396.32,396.32,0,0,0,70.7,25.83Z" transform="translate(33.96 99.17)"/><path class="cls-5" d="M439.74,557.38a403.06,403.06,0,0,1-71.52-27.32l.4-.8A401.7,401.7,0,0,0,440,556.51Z" transform="translate(33.96 99.17)"/><path class="cls-5" d="M435.65,564.84a408.94,408.94,0,0,1-72.16-28.75l.41-.8a408.22,408.22,0,0,0,72,28.69Z" transform="translate(33.96 99.17)"/><path class="cls-5" d="M431.43,572.18A414.14,414.14,0,0,1,358.67,542l.42-.79a414.64,414.64,0,0,0,72.6,30.15Z" transform="translate(33.96 99.17)"/><path class="cls-5" d="M427.1,579.41a420,420,0,0,1-73.34-31.7l.43-.79a418.53,418.53,0,0,0,73.18,31.63Z" transform="translate(33.96 99.17)"/><path class="cls-5" d="M422.64,586.51a426.56,426.56,0,0,1-73.87-33.21l.44-.78a425.57,425.57,0,0,0,73.72,33.14Z" transform="translate(33.96 99.17)"/><path class="cls-5" d="M418.08,593.48a431.36,431.36,0,0,1-74.39-34.73l.45-.77a430.27,430.27,0,0,0,74.24,34.65Z" transform="translate(33.96 99.17)"/><path class="cls-5" d="M413.41,600.32a436.63,436.63,0,0,1-74.88-36.27l.47-.77a435.9,435.9,0,0,0,74.72,36.2Z" transform="translate(33.96 99.17)"/><path class="cls-4" d="M448.22,572.24a362.83,362.83,0,0,1-91.84-42c20.87-26.47,39.19-58.47,53.75-94.67a278,278,0,0,0,78.92,15.18C479.85,494.67,465.92,535.66,448.22,572.24Z" transform="translate(33.96 99.17)"/><path class="cls-5" d="M476.24,465A289.19,289.19,0,0,1,414,451.19l.28-.83a287.57,287.57,0,0,0,62.1,13.76Z" transform="translate(33.96 99.17)"/><path class="cls-5" d="M473.9,473.75a294.42,294.42,0,0,1-63.1-15.09l.29-.82A293.4,293.4,0,0,0,474,472.89Z" transform="translate(33.96 99.17)"/><path class="cls-5" d="M471.43,482.42A299.07,299.07,0,0,1,407.54,466l.3-.81a299.31,299.31,0,0,0,63.71,16.37Z" transform="translate(33.96 99.17)"/><path class="cls-5" d="M468.83,491a305.5,305.5,0,0,1-64.66-17.78l.32-.81A304.48,304.48,0,0,0,469,490.14Z" transform="translate(33.96 99.17)"/><path class="cls-5" d="M466.11,499.47a311.23,311.23,0,0,1-65.4-19.16l.33-.8a310.69,310.69,0,0,0,65.22,19.1Z" transform="translate(33.96 99.17)"/><path class="cls-5" d="M463.26,507.83a317.13,317.13,0,0,1-66.12-20.56l.35-.8A315.84,315.84,0,0,0,463.43,507Z" transform="translate(33.96 99.17)"/><path class="cls-5" d="M460.3,516.09a322.73,322.73,0,0,1-66.82-22l.36-.79a322.18,322.18,0,0,0,66.64,21.94Z" transform="translate(33.96 99.17)"/><path class="cls-5" d="M457.22,524.23a329.16,329.16,0,0,1-67.49-23.45l.37-.79a327.63,327.63,0,0,0,67.31,23.39Z" transform="translate(33.96 99.17)"/><path class="cls-5" d="M454,532.26a334.67,334.67,0,0,1-68.12-24.93l.38-.79a333.87,333.87,0,0,0,68,24.88Z" transform="translate(33.96 99.17)"/><path class="cls-5" d="M450.7,540.18A340.82,340.82,0,0,1,382,513.73l.4-.78a340.49,340.49,0,0,0,68.57,26.39Z" transform="translate(33.96 99.17)"/><path class="cls-5" d="M447.27,548a346.56,346.56,0,0,1-69.34-28l.41-.76a346.24,346.24,0,0,0,69.17,27.91Z" transform="translate(33.96 99.17)"/><path class="cls-5" d="M443.74,555.64a352.63,352.63,0,0,1-69.92-29.55l.42-.76A352.36,352.36,0,0,0,444,554.81Z" transform="translate(33.96 99.17)"/><path class="cls-6" d="M466.46,586.75A184,184,0,0,1,375.89,546c22.72-17.26,43.27-40.88,59.69-68.67a136.29,136.29,0,0,0,74,6.8A353.48,353.48,0,0,1,466.46,586.75Z" transform="translate(33.96 99.17)"/><path class="cls-5" d="M480.31,540.54a160.94,160.94,0,0,1-65.24-17.83l.34-.66a160.36,160.36,0,0,0,64.94,17.75Z" transform="translate(33.96 99.17)"/><path class="cls-5" d="M477,547.38a164.3,164.3,0,0,1-66.1-19.7l.35-.66a163.4,163.4,0,0,0,65.81,19.62Z" transform="translate(33.96 99.17)"/><path class="cls-5" d="M473.52,554.12a167.4,167.4,0,0,1-66.91-21.63l.37-.64a166.81,166.81,0,0,0,66.61,21.54Z" transform="translate(33.96 99.17)"/><path class="cls-5" d="M469.91,560.76a170.72,170.72,0,0,1-67.67-23.61l.39-.63A170.27,170.27,0,0,0,470,560Z" transform="translate(33.96 99.17)"/><path class="cls-5" d="M466.17,567.29a173.86,173.86,0,0,1-68.38-25.64l.4-.62a173.38,173.38,0,0,0,68.09,25.53Z" transform="translate(33.96 99.17)"/><path class="cls-5" d="M462.3,573.71A177.28,177.28,0,0,1,393.25,546l.42-.62A176.59,176.59,0,0,0,462.43,573Z" transform="translate(33.96 99.17)"/><path class="cls-7" d="M473,499.32a17.44,17.44,0,0,0-7.26-2.65c-10-1.29-21.46,3.37-26.6,11.39s-1.22,17.72,9.77,20.71,24.11-3.46,28.18-13.13a151,151,0,0,1-19.35-2.59A185.76,185.76,0,0,0,473,499.32Z" transform="translate(33.96 99.17)"/><path class="cls-7" d="M478.21,497.48a192.89,192.89,0,0,1-15,14.36,149.45,149.45,0,0,0,19.38,1.85C485.44,506.67,483.23,500.6,478.21,497.48Z" transform="translate(33.96 99.17)"/><path class="cls-6" d="M624.09,500.3c-22.44,24-43.44,47.5-63.57,71.13-26-14-52.65-39.76-75.76-77.61,18-17.73,36.58-35.1,56.27-52.31C567.4,473.43,596.49,492.93,624.09,500.3Z" transform="translate(33.96 99.17)"/><path class="cls-5" d="M499.32,500l-.59-.59c14.91-14.77,29.35-28.45,44.14-41.84l.56.62C528.65,471.57,514.22,485.25,499.32,500Z" transform="translate(33.96 99.17)"/><path class="cls-5" d="M504.39,507l-.59-.59c15-15,29.61-29,44.62-42.8l.57.61C534,478,519.4,492,504.39,507Z" transform="translate(33.96 99.17)"/><path class="cls-5" d="M509.54,513.65l-.59-.59c15.12-15.33,29.87-29.64,45.08-43.77l.57.61C539.4,484,524.66,498.33,509.54,513.65Z" transform="translate(33.96 99.17)"/><path class="cls-5" d="M514.76,520l-.6-.59c15.24-15.62,30.13-30.26,45.53-44.75l.58.61C544.87,489.71,530,504.34,514.76,520Z" transform="translate(33.96 99.17)"/><path class="cls-5" d="M520,525.92l-.6-.58c15.33-15.92,30.37-30.89,46-45.75l.57.61C550.39,495.05,535.37,510,520,525.92Z" transform="translate(33.96 99.17)"/><path class="cls-5" d="M525.37,531.53l-.61-.58c15.4-16.18,30.57-31.47,46.37-46.74l.59.61C555.92,500.07,540.76,515.36,525.37,531.53Z" transform="translate(33.96 99.17)"/><path class="cls-5" d="M530.74,536.79l-.61-.57c15.53-16.51,30.83-32.13,46.77-47.74l.58.6C561.55,504.68,546.26,520.29,530.74,536.79Z" transform="translate(33.96 99.17)"/><path class="cls-5" d="M536.15,541.72l-.61-.57c15.6-16.8,31-32.75,47.14-48.76l.59.6C567.15,509,551.74,524.93,536.15,541.72Z" transform="translate(33.96 99.17)"/><path class="cls-5" d="M541.59,546.29l-.61-.56c15.66-17.09,31.2-33.37,47.48-49.78l.6.59C572.78,512.94,557.25,529.21,541.59,546.29Z" transform="translate(33.96 99.17)"/><path class="cls-5" d="M547.05,550.52l-.62-.56c15.75-17.4,31.39-34,47.82-50.8l.6.59C578.43,516.52,562.79,533.13,547.05,550.52Z" transform="translate(33.96 99.17)"/><path class="cls-5" d="M552.51,554.41l-.62-.56c15.82-17.7,31.57-34.66,48.14-51.83l.61.58C584.07,519.77,568.33,536.71,552.51,554.41Z" transform="translate(33.96 99.17)"/><path class="cls-5" d="M558,558l-.63-.56c15.63-17.72,31.93-35.51,48.45-52.87l.61.58C589.9,522.46,573.61,540.24,558,558Z" transform="translate(33.96 99.17)"/><path class="cls-6" d="M78.26,572A391,391,0,0,1-34,543.54C-16.09,519-.9,490.57,11,458.85a297.44,297.44,0,0,0,79.68-3.79A519.76,519.76,0,0,1,78.26,572Z" transform="translate(33.96 99.17)"/><path class="cls-5" d="M52.55,472.33l0-.85c9.41-.18,18.92-.79,28.28-1.84l.09.85C71.52,471.53,62,472.15,52.55,472.33Z" transform="translate(33.96 99.17)"/><path class="cls-5" d="M52.46,480H51.11v-.85c9.7.06,19.51-.35,29.15-1.2l.07.85C71.12,479.56,61.75,480,52.46,480Z" transform="translate(33.96 99.17)"/><path class="cls-5" d="M58.34,487.63c-2.93,0-5.86-.05-8.77-.13l0-.85c10,.28,20.06.09,30-.56l0,.85C72.59,487.4,65.45,487.63,58.34,487.63Z" transform="translate(33.96 99.17)"/><path class="cls-5" d="M64.2,495.38c-5.45,0-10.89-.15-16.29-.42l0-.85c10.23.52,20.62.55,30.87.11l0,.85C74,495.28,69.09,495.38,64.2,495.38Z" transform="translate(33.96 99.17)"/><path class="cls-5" d="M70,503.21c-8,0-16-.3-23.88-.87l.07-.85c10.5.76,21.17,1,31.71.78l0,.85Q74,503.21,70,503.21Z" transform="translate(33.96 99.17)"/><path class="cls-5" d="M75.66,511.11a342.28,342.28,0,0,1-72.49-7.85l.18-.83a340.44,340.44,0,0,0,73.54,7.82v.85Z" transform="translate(33.96 99.17)"/><path class="cls-5" d="M75.73,519A348.65,348.65,0,0,1,.26,509.45l.2-.83a346.83,346.83,0,0,0,75.29,9.54Z" transform="translate(33.96 99.17)"/><path class="cls-5" d="M74.45,526.85A355,355,0,0,1-2.74,515.53l.22-.83a353.78,353.78,0,0,0,77,11.3Z" transform="translate(33.96 99.17)"/><path class="cls-5" d="M73.06,534.61a360.82,360.82,0,0,1-78.88-13.1l.23-.82A360.38,360.38,0,0,0,73.1,533.76Z" transform="translate(33.96 99.17)"/><path class="cls-5" d="M71.55,542.3A368.06,368.06,0,0,1-9,527.39l.25-.82a366.45,366.45,0,0,0,80.36,14.88Z" transform="translate(33.96 99.17)"/><path class="cls-5" d="M69.92,549.9a374.35,374.35,0,0,1-82.18-16.73l.26-.81a374,374,0,0,0,82,16.7Z" transform="translate(33.96 99.17)"/><path class="cls-5" d="M68.18,557.43a380.73,380.73,0,0,1-83.79-18.59l.28-.81a379.73,379.73,0,0,0,83.6,18.56Z" transform="translate(33.96 99.17)"/><path class="cls-7" d="M41.46,501.35a333.89,333.89,0,0,1-34.69-4.83q5.45-12.63,10.15-26a310.88,310.88,0,0,0,31.35,1.44Q45.3,487,41.46,501.35Z" transform="translate(33.96 99.17)"/><path class="cls-4" d="M117.8,615.55C88.24,601.88,59.13,580.09,33.89,551c31.89-17.94,61.9-39.2,91.25-62.38,27,18.83,56,30,83.29,33.13C179.67,555.09,150,586.58,117.8,615.55Z" transform="translate(33.96 99.17)"/><path class="cls-5" d="M189.16,531.49C167.43,526.75,145,517,124.42,503.26l.49-.74c20.53,13.66,42.81,23.38,64.44,28.11Z" transform="translate(33.96 99.17)"/><path class="cls-5" d="M183,538.07c-22.16-5.39-44-15.44-64.81-29.88l.51-.73c20.75,14.38,42.45,24.38,64.51,29.75Z" transform="translate(33.96 99.17)"/><path class="cls-5" d="M176.9,544.59c-22.29-6-44.12-16.57-64.88-31.53l.52-.72c20.67,14.89,42.4,25.46,64.59,31.39Z" transform="translate(33.96 99.17)"/><path class="cls-5" d="M170.72,551.05c-22.41-6.54-44.26-17.71-64.94-33.18l.53-.71c20.59,15.41,42.35,26.52,64.66,33Z" transform="translate(33.96 99.17)"/><path class="cls-5" d="M164.5,557.44c-22.53-7.11-44.4-18.84-65-34.83l.54-.7c20.51,15.93,42.29,27.6,64.72,34.69Z" transform="translate(33.96 99.17)"/><path class="cls-5" d="M158.24,563.78c-22.66-7.7-44.54-20-65-36.5l.55-.69C114.18,543,136,555.27,158.52,562.94Z" transform="translate(33.96 99.17)"/><path class="cls-5" d="M151.93,570.05c-22.76-8.28-44.66-21.13-65.08-38.18l.57-.68c20.34,17,42.15,29.78,64.81,38Z" transform="translate(33.96 99.17)"/><path class="cls-5" d="M145.57,576.25C122.7,567.39,100.8,554,80.47,536.4l.58-.67c20.25,17.51,42.06,30.87,64.84,39.7Z" transform="translate(33.96 99.17)"/><path class="cls-5" d="M139.15,582.4c-23-9.46-44.87-23.44-65.11-41.55l.6-.66c20.15,18,42,32,64.85,41.39Z" transform="translate(33.96 99.17)"/><path class="cls-5" d="M132.69,588.47c-23.07-10.05-45-24.6-65.12-43.25l.61-.66c20.06,18.59,41.88,33.09,64.86,43.1Z" transform="translate(33.96 99.17)"/><path class="cls-5" d="M126.17,594.47c-23.17-10.64-45.08-25.77-65.11-45l.61-.64c20,19.13,41.79,34.2,64.87,44.8Z" transform="translate(33.96 99.17)"/><path class="cls-5" d="M119.59,600.4c-23.26-11.24-45.16-26.95-65.1-46.7l.63-.63C75,572.75,96.81,588.4,120,599.6Z" transform="translate(33.96 99.17)"/><path class="cls-4" d="M596.27,627.31c-29.55-13.7-58.63-35.51-83.85-64.68,31.9-17.9,61.94-39.14,91.3-62.29,27,18.85,55.95,30.08,83.27,33.2C658.2,566.91,628.45,598.37,596.27,627.31Z" transform="translate(33.96 99.17)"/><path class="cls-5" d="M667.7,543.32C646,538.55,623.61,528.77,603,515l.49-.74c20.52,13.68,42.79,23.42,64.4,28.17Z" transform="translate(33.96 99.17)"/><path class="cls-5" d="M661.59,549.89c-22.16-5.41-44-15.48-64.78-29.94l.5-.73c20.74,14.4,42.43,24.43,64.49,29.81Z" transform="translate(33.96 99.17)"/><path class="cls-5" d="M655.44,556.41c-22.29-6-44.11-16.62-64.85-31.59l.52-.72c20.65,14.91,42.38,25.49,64.56,31.45Z" transform="translate(33.96 99.17)"/><path class="cls-5" d="M649.25,562.86c-22.41-6.56-44.24-17.75-64.91-33.24l.53-.71c20.58,15.43,42.33,26.56,64.63,33.1Z" transform="translate(33.96 99.17)"/><path class="cls-5" d="M643,569.25c-22.52-7.14-44.37-18.88-65-34.9l.55-.7c20.5,16,42.26,27.65,64.68,34.75Z" transform="translate(33.96 99.17)"/><path class="cls-5" d="M636.75,575.58c-22.64-7.72-44.51-20-65-36.57l.56-.69c20.41,16.48,42.19,28.73,64.73,36.42Z" transform="translate(33.96 99.17)"/><path class="cls-5" d="M630.44,581.84c-22.75-8.3-44.63-21.16-65-38.23l.57-.68c20.33,17,42.12,29.81,64.77,38.08Z" transform="translate(33.96 99.17)"/><path class="cls-5" d="M624.07,588c-22.86-8.89-44.74-22.32-65.06-39.92l.59-.67c20.23,17.54,42,30.91,64.79,39.77Z" transform="translate(33.96 99.17)"/><path class="cls-5" d="M617.65,594.18c-23-9.48-44.85-23.48-65.07-41.61l.6-.66c20.14,18.06,42,32,64.81,41.45Z" transform="translate(33.96 99.17)"/><path class="cls-5" d="M611.18,600.24c-23.06-10.07-44.95-24.64-65.07-43.31l.6-.65c20,18.6,41.86,33.12,64.83,43.15Z" transform="translate(33.96 99.17)"/><path class="cls-5" d="M604.66,606.24c-23.16-10.67-45-25.82-65.07-45l.61-.64C560.15,579.71,582,594.81,605,605.43Z" transform="translate(33.96 99.17)"/><path class="cls-5" d="M598.07,612.16c-23.25-11.26-45.13-27-65.05-46.76l.62-.63c19.85,19.7,41.66,35.37,64.82,46.6Z" transform="translate(33.96 99.17)"/><path class="cls-8" d="M241.64,134.31a7.28,7.28,0,0,1-2.31-1.28c-3.51-2.79-21.19-22.2-25.52-27.51-6.44-7.9-8.38-10.37-11.63-15.29l1.13-9.08L218.2,67.79c2.32-2.43,3.55-1.26,5.72-1.08,24.33,2.12,32.29,11.06,34.72,13.83C260.69,82.87,269,92.46,273,98.62c3.39,4.85,4.25,13.44-2.17,17.78s-10.32,9.1-14.82,11.24S248.89,135.69,241.64,134.31Z" transform="translate(33.96 99.17)"/><path class="cls-9" d="M350.71,65.4A108.43,108.43,0,1,1,201.08,98.93,108.44,108.44,0,0,1,350.71,65.4ZM242,124.91a59.95,59.95,0,1,0,82.74-18.54A59.94,59.94,0,0,0,242,124.91Z" transform="translate(33.96 99.17)"/><path class="cls-10" d="M346.43,72.25a100.36,100.36,0,1,1-138.5,31A100.37,100.37,0,0,1,346.43,72.25ZM235.68,120.93a67.44,67.44,0,1,0,93.07-20.85A67.44,67.44,0,0,0,235.68,120.93Z" transform="translate(33.96 99.17)"/><path class="cls-11" d="M317.82,102.64l20.07-44.2a108.28,108.28,0,0,0-81.42-3.67l16.34,45.65A59.86,59.86,0,0,1,317.82,102.64Z" transform="translate(33.96 99.17)"/><path class="cls-11" d="M190.58,193.56l45.59-16.31a59.89,59.89,0,0,1,2.09-45.58l-44.1-20A108.3,108.3,0,0,0,190.58,193.56Z" transform="translate(33.96 99.17)"/><path class="cls-11" d="M347.3,181.5l44.2,20.07a108.29,108.29,0,0,0,3.17-81.32L349,136.6A59.87,59.87,0,0,1,347.3,181.5Z" transform="translate(33.96 99.17)"/><path class="cls-11" d="M268,211.68l-20,44.1a108.36,108.36,0,0,0,81.83,3.08L313.45,213.2A59.88,59.88,0,0,1,268,211.68Z" transform="translate(33.96 99.17)"/><path class="cls-12" d="M264.9,218.5l-13.61,29.95a100.25,100.25,0,0,0,75.79,2.86L316,220.3A67.41,67.41,0,0,1,264.9,218.5Z" transform="translate(33.96 99.17)"/><path class="cls-12" d="M354.18,184.63l30,13.63a100.3,100.3,0,0,0,2.9-75.31L356,134.07A67.38,67.38,0,0,1,354.18,184.63Z" transform="translate(33.96 99.17)"/><path class="cls-12" d="M198.2,190.83l31-11.07a67.31,67.31,0,0,1,2.35-51.15l-30-13.61A100.23,100.23,0,0,0,198.2,190.83Z" transform="translate(33.96 99.17)"/><path class="cls-12" d="M320.92,95.83l13.63-30a100.3,100.3,0,0,0-75.34-3.39l11.09,31A67.33,67.33,0,0,1,320.92,95.83Z" transform="translate(33.96 99.17)"/><path class="cls-13" d="M202.18,90.2c-2.09-4.15-1.92-6.11-5.33-10.17L186,70.15l24.83-27.08,5.49,5,22.87,2.81c3.59.23,7,.92,8.44,1.79l18.63,11.67a22.82,22.82,0,0,1,3.88,4l13.92,17.07c2.58,3.08,3,7.72-.29,10.33s-6.64,2.71-10.65-1.94c0,0-5.51-6.65-11.69-13.3a12.82,12.82,0,0,0-2.67-2.25l-6.31-4.12c-1.11-.81-11.59,6.16-29.27-3.5C220.55,69.72,209.36,74.73,202.18,90.2Z" transform="translate(33.96 99.17)"/><path class="cls-8" d="M252.46,74.1l6.31,4.12a12.82,12.82,0,0,1,2.67,2.25c6.18,6.65,11.69,13.3,11.69,13.3,4,4.65,7.38,4.5,10.65,1.94a6.37,6.37,0,0,0,2.05-7c-.47,3.54-5.45,6.64-8.12,4.21-2.11-2.41-13.47-14.69-13.47-14.69a10.12,10.12,0,0,0-2.56-2.1l-6.48-4.55A2.4,2.4,0,0,0,253,71c-2.09,1.14-12.88,4.12-20.73,3.39C244.42,78,251.55,73.44,252.46,74.1Z" transform="translate(33.96 99.17)"/><rect class="cls-10" x="174.58" y="48.67" width="43.27" height="11.88" transform="translate(57.6 261.95) rotate(-47.63)"/><rect class="cls-14" x="94.05" y="-110.8" width="54.3" height="194.34" transform="translate(83.55 184.27) rotate(-47.63)"/><rect class="cls-15" x="99.21" y="-99.1" width="22.63" height="194.34" transform="translate(71.42 180.2) rotate(-47.63)"/><path class="cls-13" d="M249.46,130.12,235.56,112c-4.89-6.27-13.83,0-8.93,6.94l12.7,18.31c2.14,3.11,6.18,1.86,8.32.37C249.55,136.27,251.63,133.22,249.46,130.12Z" transform="translate(33.96 99.17)"/><path class="cls-8" d="M249.46,130.12,235.56,112c-3-3.85-7.54-3-9.45-.12,2.58-1.66,6.31-1.71,8.14,1l13.46,19.24a4.83,4.83,0,0,0,2.43,2.24A4.58,4.58,0,0,0,249.46,130.12Z" transform="translate(33.96 99.17)"/><path class="cls-13" d="M261.66,124.52,246.24,104.4c-5.42-7-15.34-.06-9.91,7.7l14.09,20.32c2.38,3.44,6.86,2.06,9.23.4C261.76,131.34,264.07,128,261.66,124.52Z" transform="translate(33.96 99.17)"/><path class="cls-8" d="M261.66,124.52,246.24,104.4c-3.93-5-10.23-2.8-11.32,1.77,3.06-3.52,7.51-2.75,9.15-.53L260.3,128a3.71,3.71,0,0,0,1.95,1.59A5.08,5.08,0,0,0,261.66,124.52Z" transform="translate(33.96 99.17)"/><path class="cls-13" d="M274.85,120.45,257.26,97.28c-5.56-7.15-15.76,0-10.19,7.94L263.3,128.6c2.44,3.54,7,2.11,9.47.4C275,127.47,277.32,124,274.85,120.45Z" transform="translate(33.96 99.17)"/><path class="cls-8" d="M246.17,97.69c3.5-2.72,7.47-.87,9.26,1.5,0,0,12.11,15.78,13.75,17.93,1.48,1.95,3.36,3.3,5.2,2.7L257.26,97.28C253.66,92.65,248.12,94,246.17,97.69Z" transform="translate(33.96 99.17)"/><path class="cls-13" d="M282,108.1,266.53,88c-5.42-7-15.34-.06-9.91,7.7L270.71,116c2.38,3.45,6.86,2.07,9.23.41C282.05,114.93,284.36,111.54,282,108.1Z" transform="translate(33.96 99.17)"/><path class="cls-13" d="M323.59,277.06a4.38,4.38,0,1,0-4,4.73A4.38,4.38,0,0,0,323.59,277.06Z" transform="translate(33.96 99.17)"/><polygon class="cls-13" points="356.88 422.78 351.05 423.26 348.81 376.62 357.51 375.9 362.71 422.3 356.88 422.78"/><path class="cls-13" d="M350.23,286.58a4.38,4.38,0,1,0-5.21,3.33A4.38,4.38,0,0,0,350.23,286.58Z" transform="translate(33.96 99.17)"/><polygon class="cls-13" points="370.82 426.13 365.11 424.87 375.73 383.55 384.25 385.42 376.54 427.38 370.82 426.13"/><path class="cls-13" d="M303.29,285.79a4.38,4.38,0,1,0-3.13,5.35A4.39,4.39,0,0,0,303.29,285.79Z" transform="translate(33.96 99.17)"/><polygon class="cls-13" points="343.73 427.01 338.07 428.49 328.71 386.86 337.15 384.65 349.38 425.52 343.73 427.01"/><circle class="cls-13" cx="282.28" cy="303.3" r="3.5" transform="translate(-60.35 575.26) rotate(-71.7)"/><polygon class="cls-13" points="331.37 432.78 327.18 434.87 313 403.79 319.25 400.67 335.56 430.68 331.37 432.78"/><circle class="cls-13" cx="374.49" cy="322.82" r="5.82" transform="translate(28.12 106.07) rotate(-1.05)"/><polygon class="cls-13" points="373.29 469.07 367.07 464.42 404.07 418.17 413.36 425.11 379.52 473.72 373.29 469.07"/><path class="cls-13" d="M294,333.09l5.71-4.95a2,2,0,0,0,3.83-1,1.72,1.72,0,0,0,0-.39l5.5-3.18,5.24-1.15a1.42,1.42,0,0,0,2.72-.55l4.6.87,7-1.2a1.82,1.82,0,0,0,3.53.44l9.2,5,1.28,1.23c.1,1.69.87,7.69,1.26,10.44a4.55,4.55,0,0,0,4.3,4.46,4.61,4.61,0,0,0,4.31-2l4.66,6.34-12.06,29.45c-1.23,3.9-2.8,10.36-2.8,14.28v9.69H307.1V391a28,28,0,0,0-2.84-12.73l-7.63-21.74c-1.18-4.6-1.47-5.48-1.47-8.32v-5.58a11.61,11.61,0,0,0-1.08-4.93l-.86-2Z" transform="translate(33.96 99.17)"/><rect class="cls-10" x="337.09" y="485.77" width="43.27" height="11.88"/><rect class="cls-14" x="331.72" y="495.95" width="54.3" height="194.34"/><rect class="cls-15" x="363.39" y="495.95" width="22.63" height="194.34"/><path class="cls-10" d="M303.86,409.79a3.56,3.56,0,1,1,3.56,3.56A3.56,3.56,0,0,1,303.86,409.79Z" transform="translate(33.96 99.17)"/><path class="cls-10" d="M303.86,423a3.56,3.56,0,1,1,3.56,3.56A3.56,3.56,0,0,1,303.86,423Z" transform="translate(33.96 99.17)"/><path class="cls-10" d="M45.2,623.59c-31.63-12.75-54.56-27.8-69.58-46.47,43.48-43.48,73.78-75.68,88.53-99.71,14.34,21.82,36.84,40.53,68.2,57.53C118.77,556.17,89,584.64,45.2,623.59Z" transform="translate(33.96 99.17)"/><path class="cls-5" d="M116.53,537c-23.07-13.34-40.38-27.59-52.94-43.57l.77-.6c12.48,15.88,29.7,30.05,52.65,43.33Z" transform="translate(33.96 99.17)"/><path class="cls-5" d="M112.71,542c-23.11-13.15-40.48-27.24-53.1-43.08l.77-.61C72.92,514,90.19,528,113.19,541.12Z" transform="translate(33.96 99.17)"/><path class="cls-5" d="M108.44,547.15C85.29,534.2,67.87,520.28,55.2,504.59L56,504c12.59,15.59,29.91,29.43,53,42.32Z" transform="translate(33.96 99.17)"/><path class="cls-5" d="M103.72,552.58c-23.19-12.75-40.64-26.5-53.36-42l.75-.62c12.64,15.44,30,29.11,53.08,41.8Z" transform="translate(33.96 99.17)"/><path class="cls-5" d="M98.55,558.24c-23.21-12.54-40.7-26.11-53.47-41.48l.75-.63C58.52,531.41,75.92,544.9,99,557.38Z" transform="translate(33.96 99.17)"/><path class="cls-5" d="M93,564.15c-23.24-12.32-40.76-25.7-53.57-40.91l.75-.63C52.85,537.72,70.28,551,93.41,563.29Z" transform="translate(33.96 99.17)"/><path class="cls-5" d="M86.91,570.31C63.65,558.21,46.1,545,33.26,530l.75-.64c12.75,14.93,30.2,28,53.35,40.09Z" transform="translate(33.96 99.17)"/><path class="cls-5" d="M80.44,576.74C57.16,564.87,39.6,551.88,26.73,537l.74-.64c12.78,14.75,30.25,27.66,53.41,39.47Z" transform="translate(33.96 99.17)"/><path class="cls-5" d="M73.54,583.44C50.25,571.8,32.67,559,19.79,544.36l.73-.65C33.32,558.28,50.8,571,74,582.56Z" transform="translate(33.96 99.17)"/><path class="cls-5" d="M66.21,590.41C42.93,579,25.34,566.44,12.44,552l.72-.65c12.82,14.36,30.32,26.86,53.48,38.2Z" transform="translate(33.96 99.17)"/><path class="cls-5" d="M58.47,597.65C35.19,586.51,17.6,574.16,4.68,559.89l.73-.65c12.83,14.17,30.32,26.44,53.49,37.53Z" transform="translate(33.96 99.17)"/><path class="cls-5" d="M50.32,605.19C27,594.3,9.45,582.17-3.46,568.11l.72-.66c12.82,14,30.32,26,53.47,36.86Z" transform="translate(33.96 99.17)"/><path class="cls-16" d="M454.16,534.64a220.51,220.51,0,0,1-99.73,36.3c-17.76-27.77-33.71-54.6-48.27-80.1a187,187,0,0,0,85.33-34.72C410.24,482,431,508.35,454.16,534.64Z" transform="translate(33.96 99.17)"/><path class="cls-5" d="M322,498.12l-.15-.81a189.06,189.06,0,0,0,66.87-26.74l.45.69A189.66,189.66,0,0,1,322,498.12Z" transform="translate(33.96 99.17)"/><path class="cls-5" d="M325.18,503.53l-.15-.81A191.05,191.05,0,0,0,392.6,476l.45.7A191.7,191.7,0,0,1,325.18,503.53Z" transform="translate(33.96 99.17)"/><path class="cls-5" d="M328.43,509l-.15-.81a193,193,0,0,0,68.29-26.72l.44.7A193.94,193.94,0,0,1,328.43,509Z" transform="translate(33.96 99.17)"/><path class="cls-5" d="M331.73,514.44l-.15-.81a195.17,195.17,0,0,0,69-26.74l.43.7A195.84,195.84,0,0,1,331.73,514.44Z" transform="translate(33.96 99.17)"/><path class="cls-5" d="M335.07,520l-.14-.81a197.34,197.34,0,0,0,69.77-26.78l.43.7A198,198,0,0,1,335.07,520Z" transform="translate(33.96 99.17)"/><path class="cls-5" d="M338.46,525.49l-.14-.81a199.63,199.63,0,0,0,70.53-26.84l.43.7A200.42,200.42,0,0,1,338.46,525.49Z" transform="translate(33.96 99.17)"/><path class="cls-5" d="M341.9,531.06l-.14-.82a201.67,201.67,0,0,0,71.3-26.91l.43.7A202.67,202.67,0,0,1,341.9,531.06Z" transform="translate(33.96 99.17)"/><path class="cls-5" d="M345.39,536.66l-.14-.82a204.21,204.21,0,0,0,72.09-27l.43.7A205.21,205.21,0,0,1,345.39,536.66Z" transform="translate(33.96 99.17)"/><path class="cls-5" d="M348.92,542.29l-.13-.82a206.76,206.76,0,0,0,72.88-27.13l.43.7A207.54,207.54,0,0,1,348.92,542.29Z" transform="translate(33.96 99.17)"/><path class="cls-5" d="M352.51,547.94l-.13-.81a209.16,209.16,0,0,0,73.69-27.28l.43.71A210.17,210.17,0,0,1,352.51,547.94Z" transform="translate(33.96 99.17)"/><path class="cls-5" d="M356.15,553.62l-.13-.81a211.86,211.86,0,0,0,74.52-27.44l.42.71A212.56,212.56,0,0,1,356.15,553.62Z" transform="translate(33.96 99.17)"/><path class="cls-5" d="M359.85,559.33l-.14-.81a214.54,214.54,0,0,0,75.35-27.62l.43.71A215.11,215.11,0,0,1,359.85,559.33Z" transform="translate(33.96 99.17)"/><path class="cls-10" d="M626.21,555.93c-23.1,25.55-46.55,49.7-70.9,72.41-37.16-16.16-75.26-45.51-107.28-87a785.21,785.21,0,0,0,70.36-41.07C553.19,531.57,591.5,550.3,626.21,555.93Z" transform="translate(33.96 99.17)"/><path class="cls-5" d="M467.54,550.54l-.45-.79c17.61-10,35.52-21.26,54.78-34.3l.51.75C503.1,529.26,485.17,540.49,467.54,550.54Z" transform="translate(33.96 99.17)"/><path class="cls-5" d="M474.61,558.17l-.47-.78c17.78-10.6,35.8-22.36,55.1-35.95l.52.74C510.44,535.78,492.4,547.55,474.61,558.17Z" transform="translate(33.96 99.17)"/><path class="cls-5" d="M481.8,565.44l-.48-.77c17.9-11.16,36-23.46,55.37-37.61l.53.73C517.85,542,499.72,554.27,481.8,565.44Z" transform="translate(33.96 99.17)"/><path class="cls-5" d="M489.11,572.35l-.5-.76c18-11.7,36.19-24.55,55.58-39.27l.55.72C525.33,547.78,507.13,560.64,489.11,572.35Z" transform="translate(33.96 99.17)"/><path class="cls-5" d="M496.52,578.9l-.51-.75c18.1-12.26,36.33-25.65,55.73-40.94l.56.72C532.89,553.23,514.64,566.63,496.52,578.9Z" transform="translate(33.96 99.17)"/><path class="cls-5" d="M504,585.09l-.52-.74c18.15-12.81,36.41-26.75,55.82-42.61l.57.7C540.47,558.32,522.19,572.27,504,585.09Z" transform="translate(33.96 99.17)"/><path class="cls-5" d="M511.59,590.92l-.53-.73c18.21-13.38,36.48-27.87,55.85-44.29l.59.69C548.12,563,529.83,577.53,511.59,590.92Z" transform="translate(33.96 99.17)"/><path class="cls-5" d="M519.23,596.38l-.55-.73c18.24-13.93,36.5-29,55.83-46l.6.68C555.77,567.38,537.49,582.43,519.23,596.38Z" transform="translate(33.96 99.17)"/><path class="cls-5" d="M526.91,601.46l-.57-.71c18.27-14.51,36.5-30.1,55.76-47.65l.61.67C563.44,571.34,545.19,586.94,526.91,601.46Z" transform="translate(33.96 99.17)"/><path class="cls-5" d="M534.62,606.18l-.58-.7c18.25-15.07,36.44-31.21,55.62-49.34l.62.66C571.09,574.94,552.89,591.1,534.62,606.18Z" transform="translate(33.96 99.17)"/><path class="cls-5" d="M542.35,610.52l-.6-.68c18.23-15.64,36.36-32.33,55.42-51l.64.65C578.73,578.17,560.58,594.88,542.35,610.52Z" transform="translate(33.96 99.17)"/><path class="cls-5" d="M550.08,614.5l-.61-.68c18.2-16.22,36.25-33.47,55.17-52.72l.64.64C586.35,581,568.29,598.26,550.08,614.5Z" transform="translate(33.96 99.17)"/><path class="cls-16" d="M471.91,579.27a227.92,227.92,0,0,1-73.78,59.25,336.14,336.14,0,0,1-80.85-83.43,157,157,0,0,0,70-28.8C410.66,548.32,439.17,567.19,471.91,579.27Z" transform="translate(33.96 99.17)"/><path class="cls-5" d="M365.43,552.45l-.33-.68a169.69,169.69,0,0,0,22.71-13.22l.43.63A171.13,171.13,0,0,1,365.43,552.45Z" transform="translate(33.96 99.17)"/><path class="cls-5" d="M370.5,557.66l-.34-.67A175,175,0,0,0,393,543.14l.44.62A174,174,0,0,1,370.5,557.66Z" transform="translate(33.96 99.17)"/><path class="cls-5" d="M375.73,562.78l-.36-.67a178,178,0,0,0,22.89-14.49l.46.61A180.24,180.24,0,0,1,375.73,562.78Z" transform="translate(33.96 99.17)"/><path class="cls-5" d="M381.11,567.8l-.37-.67a183.55,183.55,0,0,0,23-15.14l.46.6A185.46,185.46,0,0,1,381.11,567.8Z" transform="translate(33.96 99.17)"/><path class="cls-5" d="M386.64,572.71l-.38-.66a188.08,188.08,0,0,0,23-15.82l.48.6A190.42,190.42,0,0,1,386.64,572.71Z" transform="translate(33.96 99.17)"/><path class="cls-5" d="M359.33,593.35l-.26-.71A186.8,186.8,0,0,0,415,560.35l.49.59A187.62,187.62,0,0,1,359.33,593.35Z" transform="translate(33.96 99.17)"/><path class="cls-5" d="M365,599l-.28-.71a191.67,191.67,0,0,0,56.17-33.9l.5.57A192.63,192.63,0,0,1,365,599Z" transform="translate(33.96 99.17)"/><path class="cls-5" d="M370.83,604.43l-.29-.7a196.74,196.74,0,0,0,56.36-35.55l.5.57A197.48,197.48,0,0,1,370.83,604.43Z" transform="translate(33.96 99.17)"/><path class="cls-5" d="M376.83,609.8l-.31-.7A201.77,201.77,0,0,0,433,571.88l.52.55A202.28,202.28,0,0,1,376.83,609.8Z" transform="translate(33.96 99.17)"/><path class="cls-5" d="M383,615l-.32-.69a206.54,206.54,0,0,0,56.65-38.94l.53.55A207.68,207.68,0,0,1,383,615Z" transform="translate(33.96 99.17)"/><path class="cls-5" d="M389.31,620.15l-.33-.69a212,212,0,0,0,56.76-40.67l.53.54A212.77,212.77,0,0,1,389.31,620.15Z" transform="translate(33.96 99.17)"/><path class="cls-5" d="M395.8,625.11l-.35-.67A217.05,217.05,0,0,0,452.28,582l.55.53A218.15,218.15,0,0,1,395.8,625.11Z" transform="translate(33.96 99.17)"/><path class="cls-7" d="M382.62,574.34A178.67,178.67,0,0,1,354.11,587c-7.17-7.61-13.91-15.49-20.21-23.56a159.76,159.76,0,0,0,27.74-9.61C368.22,560.88,375.22,567.76,382.62,574.34Z" transform="translate(33.96 99.17)"/><path class="cls-10" d="M201.65,620.73a467.21,467.21,0,0,1-96.85-32c19.18-30.2,40.08-63.48,61.93-100.14a432,432,0,0,0,100.36,8.81C245,542,222.87,583.06,201.65,620.73Z" transform="translate(33.96 99.17)"/><path class="cls-5" d="M248.45,512.66a437.08,437.08,0,0,1-77.34-8.82l.19-1a436.21,436.21,0,0,0,77.18,8.8Z" transform="translate(33.96 99.17)"/><path class="cls-5" d="M243.84,521.53a440.23,440.23,0,0,1-77.26-10.08l.21-1a439.24,439.24,0,0,0,77.09,10.06Z" transform="translate(33.96 99.17)"/><path class="cls-5" d="M239.24,530.29A443.11,443.11,0,0,1,162.09,519l.22-1a442.4,442.4,0,0,0,77,11.31Z" transform="translate(33.96 99.17)"/><path class="cls-5" d="M178.11,531.08c-6.79-1.4-13.68-3-20.49-4.71l.25-1c6.79,1.73,13.66,3.31,20.44,4.7Z" transform="translate(33.96 99.17)"/><path class="cls-5" d="M173.62,538.72c-6.77-1.5-13.65-3.2-20.43-5l.26-1c6.76,1.83,13.62,3.53,20.38,5Z" transform="translate(33.96 99.17)"/><path class="cls-5" d="M169.16,546.27c-6.77-1.62-13.62-3.42-20.37-5.36l.27-.94c6.74,1.94,13.57,3.74,20.32,5.35Z" transform="translate(33.96 99.17)"/><path class="cls-5" d="M164.72,553.72C158,552,151.14,550.08,144.43,548l.28-.94c6.71,2,13.52,3.95,20.25,5.67Z" transform="translate(33.96 99.17)"/><path class="cls-5" d="M216.42,572.63a455.19,455.19,0,0,1-76.32-17.56l.3-.93a454.37,454.37,0,0,0,76.15,17.52Z" transform="translate(33.96 99.17)"/><path class="cls-5" d="M211.9,580.8A458.63,458.63,0,0,1,135.81,562l.31-.92a457.69,457.69,0,0,0,75.93,18.75Z" transform="translate(33.96 99.17)"/><path class="cls-5" d="M207.4,588.87a459.43,459.43,0,0,1-75.84-20l.33-.92a459.49,459.49,0,0,0,75.68,20Z" transform="translate(33.96 99.17)"/><path class="cls-5" d="M202.93,596.84a463.12,463.12,0,0,1-75.58-21.22l.34-.92a460.47,460.47,0,0,0,75.42,21.18Z" transform="translate(33.96 99.17)"/><path class="cls-5" d="M198.48,604.72a466,466,0,0,1-75.3-22.44l.36-.91a463.71,463.71,0,0,0,75.14,22.39Z" transform="translate(33.96 99.17)"/><path class="cls-5" d="M220.53,564.81a448.34,448.34,0,0,1-51.14-9.44l-.63-.16.33-.57c4.68-7.9,9.29-15.77,13.72-23.4l.84.49c-4.32,7.45-8.82,15.13-13.38,22.85a448.05,448.05,0,0,0,50.38,9.26Z" transform="translate(33.96 99.17)"/><path class="cls-5" d="M221.44,540.69c-.16,1-.31,2-.47,3q4-2.14,8-4.39c-2.34-.52-4.7-1-7.05-1.6C221.75,538.69,221.6,539.69,221.44,540.69Z" transform="translate(33.96 99.17)"/><path class="cls-5" d="M174.21,554l0-1c7.92-.32,16-.91,23.89-1.76,2.43-2.8,4.87-5.65,7.25-8.47l.12-.14.19,0c7.09-.93,14.26-2.09,21.3-3.43l.18,1c-7,1.33-14.11,2.48-21.17,3.42-2.39,2.82-4.83,5.67-7.25,8.48l-.13.15-.19,0C190.34,553.07,182.22,553.67,174.21,554Z" transform="translate(33.96 99.17)"/><path class="cls-10" d="M654.17,575.68c-32.44,16-67.33,23.67-101.33,22.81-19.28-32.89-36.4-63.31-53.16-90.84a190,190,0,0,0,92-21.29C609.92,514.08,630.2,544.19,654.17,575.68Z" transform="translate(33.96 99.17)"/><path class="cls-5" d="M516.28,517.42l0-.85a190.21,190.21,0,0,0,71.42-16.42l.34.78A191.27,191.27,0,0,1,516.28,517.42Z" transform="translate(33.96 99.17)"/><path class="cls-5" d="M519.83,523.32l0-.84a191.69,191.69,0,0,0,71.73-16.42l.34.78A192.27,192.27,0,0,1,519.83,523.32Z" transform="translate(33.96 99.17)"/><path class="cls-5" d="M523.41,529.31l0-.85A192.7,192.7,0,0,0,595.46,512l.34.78A193.77,193.77,0,0,1,523.41,529.31Z" transform="translate(33.96 99.17)"/><path class="cls-5" d="M527,535.37l0-.84A189.55,189.55,0,0,0,546.43,533l.12.84A191.29,191.29,0,0,1,527,535.37Z" transform="translate(33.96 99.17)"/><path class="cls-5" d="M530.65,541.52l0-.85a194.59,194.59,0,0,0,19.54-1.57l.11.84A193.47,193.47,0,0,1,530.65,541.52Z" transform="translate(33.96 99.17)"/><path class="cls-5" d="M534.33,547.74l0-.85A193.63,193.63,0,0,0,554,545.31l.12.84A193,193,0,0,1,534.33,547.74Z" transform="translate(33.96 99.17)"/><path class="cls-5" d="M538,554l0-.84a193.13,193.13,0,0,0,19.77-1.59l.11.85A197.75,197.75,0,0,1,538,554Z" transform="translate(33.96 99.17)"/><path class="cls-5" d="M541.8,560.41l0-.85a201.74,201.74,0,0,0,74.37-16.69l.34.78A202.86,202.86,0,0,1,541.8,560.41Z" transform="translate(33.96 99.17)"/><path class="cls-5" d="M545.61,566.85l0-.84a204.08,204.08,0,0,0,74.94-16.8l.34.78A204.73,204.73,0,0,1,545.61,566.85Z" transform="translate(33.96 99.17)"/><path class="cls-5" d="M549.46,573.37l0-.84A206.49,206.49,0,0,0,625,555.61l.34.78A207.2,207.2,0,0,1,549.46,573.37Z" transform="translate(33.96 99.17)"/><path class="cls-5" d="M553.37,580l0-.84a208.48,208.48,0,0,0,76.18-17.07l.33.78A209.45,209.45,0,0,1,553.37,580Z" transform="translate(33.96 99.17)"/><path class="cls-5" d="M557.34,586.63l0-.85a211.33,211.33,0,0,0,76.86-17.23l.33.78A212.15,212.15,0,0,1,557.34,586.63Z" transform="translate(33.96 99.17)"/><path class="cls-5" d="M562.65,552.15l-.15-.24q-5.29-8.61-10.39-16.95l-1.31-2.14.72-.44,1.31,2.14q5,8.22,10.24,16.7A203.92,203.92,0,0,0,611.94,537l.34.78a204.94,204.94,0,0,1-49.35,14.32Z" transform="translate(33.96 99.17)"/><path class="cls-5" d="M568.89,543c-1.46.31-2.92.6-4.38.88l3.31,5.33q2.2-.4,4.41-.87C571.11,546.57,570,544.79,568.89,543Z" transform="translate(33.96 99.17)"/><path class="cls-5" d="M575.85,539.52c-1.45.37-2.9.72-4.35,1.06l4.39,7c1.46-.34,2.92-.69,4.38-1.06Z" transform="translate(33.96 99.17)"/><path class="cls-5" d="M579.22,530.2c-1.42.43-2.85.84-4.28,1.23q4.41,7,9,14.1c1.46-.4,2.91-.82,4.36-1.25Q583.67,537.16,579.22,530.2Z" transform="translate(33.96 99.17)"/><path class="cls-5" d="M589.13,530.91c-1.42.49-2.84,1-4.26,1.42q3.45,5.37,7,10.84c1.44-.46,2.88-.94,4.32-1.43Q592.61,536.28,589.13,530.91Z" transform="translate(33.96 99.17)"/><path class="cls-5" d="M593,522.11c-1.4.55-2.79,1.08-4.2,1.59q5.37,8.26,11,16.77c1.43-.52,2.86-1.05,4.28-1.61Q598.39,530.37,593,522.11Z" transform="translate(33.96 99.17)"/><path class="cls-10" d="M297.86,612.8C265.45,593,234.32,573,203.52,552.9c27.87-16.66,57.11-42.62,84.61-77.69,30.61,10,60.93,20,91.91,29.79C355.29,549.84,326.88,586,297.86,612.8Z" transform="translate(33.96 99.17)"/><path class="cls-5" d="M360.75,516.45c-23.68-8.3-47.43-16.86-70.39-25.14l-1-.36.34-.92,1,.36c23,8.28,46.7,16.84,70.38,25.14Z" transform="translate(33.96 99.17)"/><path class="cls-5" d="M355.32,525c-24.8-9.18-49.74-18.69-71.74-27.09l.35-.91c22,8.4,46.93,17.91,71.73,27.08Z" transform="translate(33.96 99.17)"/><path class="cls-5" d="M349.81,533.31c-24-9.35-47.77-18.9-72.05-28.67l.37-.91c24.28,9.78,48.05,19.33,72,28.67Z" transform="translate(33.96 99.17)"/><path class="cls-5" d="M344.22,541.36c-24.86-10.19-49.35-20.54-72.31-30.28l.38-.9c22.95,9.74,47.45,20.09,72.3,30.27Z" transform="translate(33.96 99.17)"/><path class="cls-5" d="M338.56,549.14c-25.51-10.95-50.81-22.2-72.53-31.87l.39-.89c21.72,9.67,47,20.91,72.53,31.87Z" transform="translate(33.96 99.17)"/><path class="cls-5" d="M332.83,556.67c-24.95-11.22-49.69-22.73-72.71-33.48l.41-.89c23,10.76,47.76,22.26,72.7,33.48Z" transform="translate(33.96 99.17)"/><path class="cls-5" d="M327.05,563.94c-25.43-12-50-23.94-72.85-35.1l.43-.87c22.81,11.15,47.41,23.13,72.83,35.08Z" transform="translate(33.96 99.17)"/><path class="cls-5" d="M321.21,570.94c-25.95-12.74-51.43-25.71-72.94-36.71l.45-.87c21.5,11,47,24,72.92,36.71Z" transform="translate(33.96 99.17)"/><path class="cls-5" d="M315.33,577.69c-26.42-13.53-51.72-27-73-38.33l.46-.87c21.26,11.36,46.56,24.8,73,38.33Z" transform="translate(33.96 99.17)"/><path class="cls-5" d="M309.4,584.17c-26.91-14.36-53.14-28.9-73-40l.48-.85c19.84,11.06,46.07,25.59,73,39.95Z" transform="translate(33.96 99.17)"/><path class="cls-5" d="M303.45,590.39c-27.2-15.1-53.28-30.16-73-41.59L231,548c19.68,11.43,45.75,26.48,72.94,41.57Z" transform="translate(33.96 99.17)"/><path class="cls-5" d="M297.46,596.34c-21.49-12.41-44-25.73-72.87-43.22l.5-.83c28.9,17.48,51.37,30.8,72.86,43.2Z" transform="translate(33.96 99.17)"/></g></g></g></svg>